<?xml version="1.0" encoding="utf-8"?>
<!-- Generator: Adobe Illustrator 30.1.0, SVG Export Plug-In . SVG Version: 9.03 Build 0)  -->
<svg version="1.0" id="Calque_1" xmlns="http://www.w3.org/2000/svg" xmlns:xlink="http://www.w3.org/1999/xlink" x="0px" y="0px"
	 viewBox="0 0 1920 1144" style="enable-background:new 0 0 1920 1144;" xml:space="preserve">
<style type="text/css">
	.st0{fill:none;}
</style>
<g transform="translate(0.000000,1144.000000) scale(0.100000,-0.100000)">
	<path class="st0" d="M0,5720V0h9600h9600v5720v5720H9600H0V5720z M6906,11055c4-8,12-15,20-15c21,0,18-130-6-219
		c-11-41-20-82-20-91s-8-34-19-56c-10-21-24-67-31-102c-7-34-17-65-23-69s-8,3-4,18c4,13,10,48,13,77c6,49,5,54-15,59
		c-21,5-22,10-16,57c8,69,44,272,56,319C6871,11071,6896,11083,6906,11055z M4355,11041c-3-5,3-12,12-14c11-3,6-5-11-6
		c-28-1-28-2-13-19c22-24,23-56,1-48c-19,7-186-10-234-25c-86-26-118-50-208-155c-113-133-175-357-126-460c51-107,242-194,398-180
		c121,11,295,100,414,212c28,28,52,48,52,45c0-9,47,69,72,119c12,25,21,48,20,51c0,4,8,15,18,24c18,16,20,17,20,2c0-10-4-17-10-17
		c-5,0-10-13-10-29s-7-37-16-45c-8-9-12-20-9-26s-1-13-9-16c-10-4-14-16-11-34c3-26-9-41-37-44c-4-1-13-7-20-14c-11-11-10-12,5-7
		c25,10,21-2-13-38c-16-18-30-43-30-56c0-16-4-21-15-17c-8,3-14,0-12-6c1-6-9-17-23-25c-14-7-24-17-23-23c2-5-6-10-16-10
		s-21-6-24-13c-2-7-53-37-113-67l-108-54h-116c-145,0-227,23-334,93c-124,81-160,143-160,276c0,239,140,451,349,529
		c28,10,56,23,62,29c7,5,57,12,110,16c92,6,99,8,110,31c8,17,21,26,38,28C4349,11049,4359,11046,4355,11041z M4485,11040
		c4-7-3-8-22-4c-38,9-42,14-10,14C4467,11050,4482,11045,4485,11040z M4415,11030c3-5-1-10-9-10c-9,0-16,5-16,10c0,6,4,10,9,10
		C4405,11040,4412,11036,4415,11030z M4524,11019c-5-9,1-10,19-5c21,5,25,3,20-9c-5-16-30-15-88,3c-18,5-18,6,5,13
		C4518,11032,4532,11031,4524,11019z M4633,10974c14-5,25-24,13-24c-14,0-76,32-76,40c0,6,8,6,23,0
		C4605,10984,4623,10977,4633,10974z M12038,10964c17-12,22-24,20-46c-3-33-8-37-80-65c-47-18-61-31-35-35c101-12,177-55,177-100
		c0-31-47-79-101-103c-24-11-46-22-49-25c-12-12-118-60-145-64c-33-6-65,16-65,46c0,10-5,18-10,18c-7,0-7,6-1,18c8,16,47,36,134,71
		c43,17,25,27-61,34c-170,13-217,90-89,147c29,13,77,38,108,56C11959,10987,11994,10995,12038,10964z M4680,10940c0-5-5-10-11-10
		c-5,0-7,5-4,10c3,6,8,10,11,10C4678,10950,4680,10946,4680,10940z M4710,10920c0-5-4-10-10-10c-5,0-10,5-10,10c0,6,5,10,10,10
		C4706,10930,4710,10926,4710,10920z M12698,10910c33-20,33-20,15-45c-11-15-28-24-43-25c-15,0-30-4-35-9c-6-5-26-11-45-13
		c-39-4-30-11,38-28c46-12,76-50,55-71c-5-5-55-20-111-32c-132-29-135-56-7-57c88,0,117-19,80-50c-9-7-13-15-10-18c5-5-49-34-70-37
		c-5-1-27-5-48-10c-45-9-100,5-135,34c-24,20-24,24-41,231c-6,75-5,98,6,110c17,19,124,37,233,39
		C12649,10930,12671,10926,12698,10910z M4773,10869c9-17,17-40,17-52c-1-17-4-15-17,13c-9,19-15,38-15,42c1,4-5,5-13,2
		c-10-4-15,0-15,15C4730,10917,4751,10907,4773,10869z M13195,10900c-3-5,0-7,9-4c24,9,56-14,56-41c0-21-8-27-64-44
		c-35-11-80-23-100-26c-43-8-39-26,5-20c43,5,147-16,153-32c3-7,3-20-1-29c-7-19-98-64-130-64c-12,0-25-5-28-11c-5-7,4-8,27-5
		c18,3,56,8,83,11c28,3,59,8,70,10c11,3,29-2,39-10c20-15,20-15,0-30c-10-8-25-12-31-10c-7,2-13-4-13-13c0-26-51-60-116-77
		c-46-12-71-13-122-4c-36,5-73,14-83,20c-24,13-34,54-21,85c8,15,8,32,2,48c-5,13-11,44-15,67c-3,24-8,61-11,81
		c-13,89,17,107,179,108C13158,10910,13199,10906,13195,10900z M1085,10864c13-20,14-28,4-40c-6-8-10-16-8-17c2-2,16-11,31-20
		c55-35,68-113,28-164c-70-90-224-129-341-88c-92,33-127,107-79,168c49,62,256,184,316,186C1060,10890,1072,10883,1085,10864z
		 M477,10865c34-24,39-52,58-300c2-27,7-105,11-172l7-122l-28-13c-23-11-29-10-40,6c-14,18-40,146-55,268c-13,105-28,187-44,240
		c-16,54-11,95,13,101C432,10882,456,10880,477,10865z M2046,10850c22,0,32-39,21-78c-15-49-14-49,121-44c28,1,44,7,47,17
		c3,8,8,23,12,33c3,9,6,20,5,23c-3,18,48,50,74,47c37-4,48-43,29-113c-15-59-23-190-12-201c13-13,7-41-12-58c-15-14-24-15-39-7
		c-18,9-37,57-32,77c1,4-3,10-9,13c-6,4-12,20-13,35c-4,40-17,45-84,28c-85-20-168-10-200,25c-24,26-29,56-18,111c8,40,62,105,81,98
		C2025,10853,2038,10850,2046,10850z M16515,10830c22-24,15-55-23-95c-43-46-123-166-116-176c3-5,13-9,22-9c26-1,104-39,125-61
		c28-30,33-90,11-130c-39-70-95-119-162-139c-86-27-165-26-204,1c-16,12-27,24-24,27s1,11-5,18c-30,37,24,56,158,58
		c80,1,120,21,138,70c14,40-6,48-100,41c-172-14-188-13-202,17c-7,14-10,33-7,42c7,19,61,49,73,42c11-7,61,32,61,47c0,7,15,35,34,62
		c18,28,36,60,40,73c6,19,4,22-19,22c-15,0-64-7-110-16c-88-18-129-14-139,12c-9,23,3,62,22,69c10,4,89,10,177,14
		c93,4,168,12,180,19C16474,10855,16495,10853,16515,10830z M3104,10780c32-12,34-47,6-83c-11-14-23-39-26-56c-6-29-5-31,24-31
		c50,0,81,17,87,47c11,52,25,73,51,83c33,13,69-7,77-42c4-13-5-66-19-118s-25-103-25-112c0-10-8-18-17-18c-14,0-14-2-3-9
		c22-14-12-61-44-61c-31,0-47,30-44,78c4,54-4,62-48,50c-55-15-124-4-145,22c-41,50-5,189,60,233c20,14,38,26,39,26
		C3078,10790,3090,10786,3104,10780z M4807,10768c-3-8-6-5-6,6c-1,11,2,17,5,13C4809,10784,4810,10775,4807,10768z M2703,10749
		c31-33,34-119,8-189c-39-103-118-159-190-134c-32,12-71,69-71,105c0,28,26,104,42,124c5,6,26,33,48,62c23,28,48,54,58,57
		C2631,10783,2683,10771,2703,10749z M4269,10765c24-3,61-15,82-27c36-20,39-25,39-63c0-43-14-62-72-98c-31-19-37-44-13-53
		c20-8,61-80,70-121c14-67-48-143-130-162c-67-15-144-21-150-11c-2,4-17,5-31,2c-19-3-25-1-20,7c4,6,1,11-8,11s-16,7-16,15
		s-9,19-21,25c-38,21-59,86-58,185c1,138,13,263,26,276C3990,10774,4123,10780,4269,10765z M4797,10708c-3-8-6-5-6,6
		c-1,11,2,17,5,13C4799,10724,4800,10715,4797,10708z M7747,10680c30,0,30-28,1-66c-13-16-26-33-30-39c-50-63-90-158-91-214l-1-36
		l98,4c65,2,105-1,121-9l23-12l-41-34c-23-19-58-42-77-51c-40-20-132-23-138-5c-2,7-7,10-12,7c-9-6-70,54-70,70c0,6-5,16-12,23
		c-20,20-16,53,19,136c19,45,41,99,50,121c27,66,105,137,127,115C7720,10684,7734,10680,7747,10680z M17475,10655c34-20,47-35,56-65
		c16-53-4-98-77-170c-30-29-54-57-54-62c0-4,20-8,44-8c68,0,150-19,164-37c25-35-14-88-58-77s-103,10-183-3c-165-26-208-17-220,43
		c-6,34,8,46,88,79c95,39,158,79,189,120c66,86,4,120-169,92c-108-18-138-10-143,39c-3,27,1,32,35,47c70,30,108,37,196,32
		C17415,10682,17439,10676,17475,10655z M18574,10664c24-23,28-54,16-104c-5-25-13-99-17-166c-5-98-3-123,8-130c8-4,55-10,105-12
		c89-4,90-4,104-35c24-54,8-62-116-60c-302,4-362,4-394-6c-41-13-110-14-127-3c-23,14-26,66-6,90c16,20,31,22,160,28l142,7l4,46
		c3,25,5,80,4,121c-2,87,6,83-119,54c-90-20-121-13-132,33c-6,22-3,32,19,50c15,13,40,23,58,23s75,18,127,39
		C18515,10682,18551,10688,18574,10664z M6475,10652c-21-15-15-32,12-32c25,0,26,0,8-20c-10-11-22-20-27-20s-37-11-71-24
		s-90-34-124-47c-61-23-76-36-50-43c99-25,171-67,188-109c43-103-124-242-318-264c-35-4-43-2-43,11c0,9-4,16-10,16c-5,0-10,5-10,10
		c0,18,43,70,57,70c7,0,13,7,13,16c0,11,6,14,22,9c17-6,20-4,15,9c-5,14-3,15,12,6c14-7,20-6,25,5c3,8,11,15,17,15s-1-16-16-36
		c-15-19-25-37-23-39c5-5,70,17,78,26c3,3,19,13,35,23c48,28,69,63,57,91c-24,53-80,62-301,52c-75-4-100-2-93,5c8,8,7,15-6,24
		c-16,12-16,14,3,28c11,8,36,21,55,27s64,27,100,45c74,38,62,43-60,23c-37-7-80-9-94-5c-32,8-50,39-37,64c8,16,32,21,148,31
		c76,7,179,15,228,18c50,3,115,8,145,13C6488,10661,6486,10661,6475,10652z M1470,10628c24-26,25-46,5-76c-16-22-30-23-77-4
		c-54,22-25,97,39,101C1444,10650,1458,10640,1470,10628z M4776,10613c-11-11-17,4-9,23c7,18,8,18,11,1
		C4780,10627,4779,10616,4776,10613z M8920,10560c4,0,11-7,14-16c5-13,2-15-14-11c-14,3-23,0-27-10c-5-12-7-12-14-1c-6,9-9,10-9,1
		c0-16-52-43-83-43c-12,0-28-5-33-10c-6-6-21-12-34-15c-38-7-110-37-110-46s66-31,195-63c55-13,112-29,128-35c33-13,55-59,35-75
		c-7-6-10-7-5-2c17,23,5,27-25,9c-30-17-113-44-180-58c-16-3-28-12-28-20c0-9-6-12-16-8c-11,4-12,8-4,13c13,8,10,31-5,43
		c-6,5,0,7,13,4c12-3,22-1,22,4s9,9,20,9s41,10,66,22l46,21l-27,15c-15,7-40,12-56,10c-16-3-29,0-29,5c0,6-3,8-6,4c-3-3-29,1-57,10
		c-28,8-58,16-66,18c-9,2-33,11-54,19c-31,14-36,20-28,34c5,9,10,22,11,27c1,6,8,9,16,7s40,14,71,35s102,59,157,85
		c79,37,102,44,104,33C8910,10567,8915,10560,8920,10560z M10175,10548c15,1,17-1,5-8c-8-5-18-6-23-3s-6-3-3-14c6-18,1-20-56-22
		c-35-1-76-6-93-10c-16-5-43-12-58-15c-49-11-18-26,54-26c65,0,70-2,79-26c6-14,10-29,10-34s-39-11-87-12c-51-2-88-7-90-14
		c-3-7,21-10,76-7c77,3,79,3,74-18c-3-12-19-27-36-34c-20-8-25-14-16-18c8-3-22-6-67-6c-104-1-115,9-116,106c-1,37-5,76-10,86
		c-15,30,0,53,45,67c23,7,47,14,52,16c6,1,62,0,125-3S10164,10548,10175,10548z M7227,10538c15-6,34-10,40-9c7,1,22-3,34-9
		c66-36,76-90,29-155c-16-22-37-50-46-63c-9-12-15-24-13-27c5-4,113,20,127,29c6,3,12,0,15-6c3-10,13-8,38,5l34,19l-35-30
		c-19-17-37-30-40-29c-11,2-135-66-149-84c-17-19-115-49-163-49c-15,0-39,10-54,23c-36,31-28,65,21,91c20,11,45,27,55,35
		c10,9,33,27,51,41c34,26,79,91,79,114s-66,39-136,33c-68-7-98-20-112-51c-12-27-59-28-66-1c-9,33-7,85,4,85c6,0,29,9,53,19
		c23,11,53,22,67,24C7113,10552,7200,10550,7227,10538z M9361,10516c-10-11-8-15,6-18c12-3,0-13-39-32c-31-16-59-35-62-42
		c-15-39,20-53,127-52c32,0,60-2,63-5c10-10-38-46-54-40c-10,4-13,2-8-5c5-8,0-12-13-12c-12,0-21,6-21,13s-7,3-15-7
		c-14-19-19-19-78-8c-49,10-68,19-89,45c-28,31-37,71-18,82c6,3,10,1,10-4c0-6,5-11,10-11c6,0,10,7,10,15c0,22,115,83,179,94
		C9371,10530,9367,10524,9361,10516z M6820,10430c-13-66-24-81-15-20c7,54,15,83,21,77C6828,10485,6826,10459,6820,10430z
		 M9376,10461c-3-5-16-11-28-14c-22-6-22-5-4,8C9366,10472,9384,10475,9376,10461z M14901,10392c14-9,39-30,56-47c16-16,58-56,91-88
		c79-74,82-100,17-142c-97-62-178-82-204-51c-7,8-11,27-9,43c3,26,0,28-27,26c-163-11-303,13-373,64c-27,20-30,27-22,43
		c19,36,40,39,185,19c141-18,266-24,278-13c3,4-12,24-33,44c-43,42-50,72-23,102C14857,10414,14868,10415,14901,10392z M14031,10380
		c79-22,69-72-16-83c-25-4-53-11-62-16c-10-5-30-14-45-20c-16-6-28-17-28-25c0-12,15-15,73-14c103,2,122-16,73-69c-25-27-26-43-1-43
		c12,0,33-38,23-43c-1-1-14-8-27-15c-68-39-175-53-221-29c-40,20-50,55-52,182l-3,117l34,29c19,15,46,30,60,32
		C13893,10391,13996,10390,14031,10380z M12022,10368c15-12,22-36,19-64c0-6-19-19-40-29c-22-10-42-24-45-31c-3-8-12-14-20-14
		c-19,0-86-79-86-102c0-15,8-18,51-18c29,0,69,5,90,12c39,11,39,11,19,30c-21,20-25,44-11,67c6,9,42,19,91,27c140,20,193-9,171-92
		c-14-51-62-104-95-104c-29,0-76,19-76,31c0,5-8,5-17,2c-15-6-15-7,1-13c14-5,6-12-35-33c-38-20-54-25-60-16c-5,9-12,8-25-6
		c-15-14-28-16-78-11c-76,8-125,32-149,73c-16,28-17,38-7,68c17,51,139,169,219,211C11989,10383,12000,10385,12022,10368z
		 M13418,10360c98-27,182-71,220-115c59-67,34-116-92-176c-44-22-86-39-93-39c-8,0-27-7-43-15c-26-13-34-14-63-1
		c-50,20-74,58-87,136c-26,154-8,230,53,230C13331,10380,13378,10371,13418,10360z M12478,10354c19-13,22-24,22-87
		c0-97,7-117,37-117c13,0,33,5,44,10c23,13,69,100,69,132c0,53,45,82,90,58c17-9,19-20,16-74c-4-62-27-126-46-126c-6,0-10-6-10-14
		c0-18-48-76-62-76c-6,0-16-7-22-16c-20-26-86-29-133-5c-76,40-105,96-102,199C12384,10358,12417,10397,12478,10354z M6797,10338
		c-3-8-6-5-6,6c-1,11,2,17,5,13C6799,10354,6800,10345,6797,10338z M13056,10335c18-22,21-35,18-82c-2-30-8-61-14-68
		c-6-8-13-34-15-59c-4-57-10-66-40-66c-29,0-59,39-49,64c3,9,1,16-5,16c-7,0-11,30-11,88c0,75,3,92,20,110
		C12988,10368,13029,10366,13056,10335z M6781,10254c-5-16-10-21-10-12c-1,18,10,51,15,45C6788,10286,6785,10271,6781,10254z
		 M6717,10228c-3-8-6-5-6,6c-1,11,2,17,5,13C6719,10244,6720,10235,6717,10228z M6754,10146c-3-21-9-35-11-32c-3,3-2,21,1,42
		c4,20,10,34,12,31C6759,10184,6758,10166,6754,10146z M6731,10032c-6-2-11-8-11-13c0-6,5-7,10-4c12,7,13-17,2-30
		c-12-15-30-74-37-125c-11-78-13-82-38-68c-12,6-25,16-29,22c-5,7-12,4-22-9c-14-20-15-19-21,6c-4,17,2,43,19,80c13,30,28,67,31,82
		c4,15,11,30,16,33s5-5,0-18c-4-13-5-32-1-43s3-28-2-37c-5-12-5-18,2-18c5,0,10,7,10,15c0,9,7,18,15,21c8,4,12,11,9,16
		c-4,5-2,20,4,31c6,12,19,47,29,77c18,55,18,55,21,20C6740,10051,6737,10034,6731,10032z M14630,9042c61-30,86-118,58-201
		c-7-20-32-67-56-106c-25-38-51-80-59-93c-12-20-12-23,2-28c23-9,132,5,176,23c24,9,52,13,72,9c27-5,33-11,35-34c1-15-2-33-6-39
		c-13-21-202-73-264-73c-82,0-158,44-158,93c0,19,39,80,85,132c56,63,103,182,90,226c-6,18-12,20-48,14c-23-3-80-17-127-30
		c-112-30-160-38-160-26c0,5,4,11,9,13s17,18,27,36C14352,9040,14538,9088,14630,9042z M15687,9003c43-20,63-50,70-103
		c6-40,3-44-48-94c-65-63-139-151-139-165c0-11,81-26,102-18c7,2,24,0,37-5c15-5,28-4,38,3c10,9,17,9,25,1s4-19-13-41
		c-23-28-48-44-33-20c3,6-4,4-18-5c-29-19-150-23-201-7c-32,11-67,57-67,88c0,15,37,45,103,83c42,25,69,49,89,80c15,25,32,52,37,61
		c7,10,6,23-3,40c-11,23-15,24-128,24c-97,0-120,3-134,17c-25,25-5,44,70,67C15545,9031,15634,9029,15687,9003z M11436,9002
		c18-12,23-39,11-56c-10-12-68-33-182-63c-44-12-95-38-92-47c2-5,30-17,63-26c32-9,78-26,102-39c118-61,111-100-33-174l-69-36
		l-22,20c-20,19-32,75-13,63c5-3,9,0,9,6c0,5,16,18,35,27c57,27,47,34-110,72c-92,22-129,62-109,115c5,14,80,56,98,56
		c3,0,30,11,60,25C11283,8990,11411,9019,11436,9002z M16007,8993c36-47,44-86,38-188c-11-170-25-224-57-225c-5,0-7,3-7,8
		c3,19-2,23-16,12c-25-21-33,24-28,166c3,109,2,134-11,147c-14,14-14,19-1,50s26,42,59,46C15989,9009,15999,9002,16007,8993z
		 M7747,8992c24-15,33-66,33-184c0-105-2-119-16-114c-9,3-27,6-40,6c-20,0-24,5-24,30c0,17,5,30,13,30c6,1,0,7-14,15
		c-26,14-26,17-25,99c2,76,5,87,27,105C7728,9002,7730,9003,7747,8992z M16287,8984c82-27,123-80,123-158c0-24-6-51-13-58
		c-15-16-39-69-34-75c7-7,51-14,99-15c62-2,99-31,91-71c-7-35-38-53-67-39c-11,6-52,16-90,21c-39,6-90,21-115,34c-40,20-46,28-49,58
		c-2,29,4,44,33,79c57,69,60,77,30,104c-15,14-40,28-55,31c-35,8-80,41-80,60c0,17,38,45,62,45C16231,9000,16261,8993,16287,8984z
		 M5558,8974c30-21,28-52-7-100c-46-63-112-192-102-198c9-6,126,6,196,20c22,4,37,0,53-14c14-13,19-23,12-27c-6-3-8-11-5-16
		c4-5,1-9-4-9c-6,0-11-7-11-15s-4-15-9-15c-26,0-279-41-296-49c-28-11-85,14-85,38c0,10,12,40,27,67c89,164,102,194,87,202
		c-8,4-45,4-83-1c-53-7-75-6-97,4c-38,19-45,60-12,76c24,12,184,41,253,46c22,2,45,4,50,5C5531,8989,5546,8983,5558,8974z
		 M6003,8966c59-29,46-50-35-58c-70-7-88-13-88-29c0-9,90-5,149,7c18,4,22,2,18-10c-5-11,0-16,13-16c26,0,25-8-4-35
		c-15-13-54-28-106-39l-82-18l6-47c5-41,3-50-17-68c-21-18-27-19-50-7c-41,22-50,117-22,235c23,96,40,111,120,106
		C5938,8985,5982,8976,6003,8966z M11930,8970c0-4,15-8,34-8c44,0,55-7,49-31c-5-21-63-51-99-51c-34,0-38-18-20-90
		c28-107,17-173-25-165c-32,6-46,22-53,58c-3,17-13,65-22,105l-16,72h-42c-43,1-86,27-86,53c0,30,36,47,121,55
		C11879,8979,11930,8980,11930,8970z M13602,8966c7,5,25-3,57-24c19-13-3-52-30-52c-11,0-29-5-39-10c-11-6-61-13-112-17
		c-51-3-95-7-97-9c-3-3,0-9,6-15c7-7,51-10,119-7c120,3,153-7,133-44c-5-10-16-18-23-18c-21,0-36-24-26-40c8-12,10-12,10-1
		c0,10,8,12,32,7c37-7,88-28,88-36c-1-24-69-58-130-65c-19-2-57-7-85-11c-39-4-61-1-97,15c-28,12-50,16-53,11c-11-18-54-10-69,12
		c-12,17-16,48-16,125c0,120,8,145,50,163c39,16,182,28,235,19C13577,8965,13598,8964,13602,8966z M8348,8915c12-25,32-66,45-91
		c12-26,34-59,50-73c15-15,27-37,27-51s9-38,19-53c31-48,2-94-31-49c-7,9-25,23-40,31c-16,8-28,20-28,27c0,15-52,39-104,48
		c-21,4-47,13-57,19c-15,9-22,7-39-12c-11-13-20-30-20-37c0-15-27-44-41-44c-6,0-7,5-4,10c3,6,0,13-9,16c-8,3-17,11-19,19
		c-6,15,37,105,56,117c6,4,12,11,12,15c1,4,13,34,29,65c31,66,57,88,101,88C8322,8960,8329,8954,8348,8915z M12851,8943
		c44-24,105-83,113-111c5-15,2-32-9-48c-19-29-13-44,18-44c12,0,34-8,49-18c23-15,26-21,15-34c-15-19-81-41-120-40c-17,0-43,6-59,13
		c-22,9-32,9-41,0c-29-29-94,3-81,41c4,12,2,18-4,15c-12-8-23,111-15,169c6,48,16,60,53,67C12814,8961,12818,8960,12851,8943z
		 M1794,8929c6-6,4-46-6-106c-18-113-16-209,6-272c18-48,21-85,7-77c-5,4-11,1-13-6c-3-7-11-9-24-3c-10,4-25,7-32,6s-11,2-10,6
		s-5,24-15,43c-33,69-46,154-36,234C1691,8912,1739,8981,1794,8929z M3733,8887c-3-18-17-79-30-137s-26-136-28-173c-2-52-8-72-22-82
		c-12-9-22-10-30-3c-7,5-16,7-22,4c-9-6-27,63-33,124c-2,18-12,28-33,35c-82,28-126,75-133,144c-3,38,0,50,17,65c17,16,25,17,46,8
		c14-7,27-23,31-39c12-56,15-61,46-74c27-11,32-10,44,6c8,10,14,26,14,34c1,30,41,106,67,128c24,20,28,20,49,6
		C3735,8921,3738,8912,3733,8887z M4342,8931c16-16,25-18,46-10c20,8,29,7,37-4c5-7,25-22,43-32c17-11,32-26,32-35c0-8,7-35,16-59
		c8-25,16-57,17-72s6-25,11-22c4,3,5-5,1-17c-4-14-3-20,3-16c5,3,12,0,15-8c8-19-3-57-14-50c-5,3-9-1-9-9s-6-20-14-26
		c-11-9-18-6-35,18c-12,16-21,33-21,39c0,5-7,23-15,40c-16,32-26,37-83,47c-38,6-45-6-57-100c-5-45-13-66-32-85c-18-17-27-21-30-12
		c-3,6-13,12-23,12c-26,0-34,32-22,88c21,96,21,118,1,130c-19,12-27,52-10,52c18,0,61,51,61,73c0,20,42,77,57,77
		C4319,8950,4330,8941,4342,8931z M7505,8934c17-13,18-16,5-24s-13-10,2-10c14,0,16-14,12-137c-3-76-7-139-9-142c-3-2-12,2-21,10
		c-10,8-19,13-21,11c-2-1-14,0-28,4c-23,6-23,7-8,30c14,22,14,24,0,18c-12-4-16,2-15,28c0,18-1,66-2,106c-1,85,4,109,28,115
		C7477,8951,7484,8950,7505,8934z M2476,8916c18-13,19-25,16-179c-3-149,0-186,25-271c3-13,1-16-7-11c-7,4-15,3-19-3c-4-7-21-9-43-6
		c-31,5-37,11-47,45c-40,132-33,369,12,417C2437,8934,2449,8935,2476,8916z M12399,8851c15-50,14-63-5-110c-27-67-134-104-182-63
		c-11,9-30,25-42,35c-41,34-10,134,51,168c9,5,32,4,54-2c24-7,40-7,44-1c7,11,41,20,57,15C12382,8891,12392,8872,12399,8851z
		 M3145,8839c33-12,56-29,67-46c15-25,15-32,1-73c-8-25-19-49-24-54c-5-6-9-16-9-24c0-11,18-13,92-11c56,3,93,0,95-6
		c3-11-80-69-124-86c-93-36-170-31-218,14c-39,36-30,64,33,107c55,36,76,75,51,92c-8,5-63,7-132,3l-117-6l-12,26c-16,35-2,57,48,72
		C2955,8865,3086,8861,3145,8839z M15126,8813c20-26,17-67-6-88c-28-25-80-10-98,29c-13,25-12,30,9,52
		C15058,8835,15107,8838,15126,8813z M5093,8790c11-14,15-29,11-45c-7-30-14-35-46-36c-12,0-94-5-181-11c-175-12-207-7-207,35
		c0,43,44,57,172,56c157-1,178,0,197,11C5063,8814,5074,8812,5093,8790z M698,8725c34-4,62-11,62-16s11-14,24-20c44-20,43-173-1-218
		c-24-23,0-32,59-23c69,11,138,62,138,103c0,56,14,91,52,132c22,24,34,32,28,20c-13-27-11-28,26-8c15,8,30,13,31,11c5-5-17-60-26-66
		c-4-3-11-17-15-32c-10-42,13-36,65,17c24,25,47,45,52,45c11,0,9-68-3-75c-5-3-10-16-10-27c0-12-14-34-32-50c-17-15-30-29-27-31
		c11-10,105-37,128-38h26l-25-10c-14-5-31-17-38-26c-11-15-20-16-90-4c-128,21-159,17-201-28c-24-25-34-30-47-23c-10,5-29,6-44,2
		s-54-11-88-15s-64-11-67-16c-3-4-13-5-22-2c-12,5-15,2-10-10s1-17-13-17c-11,0-20,5-20,11c0,5-6,7-12,3c-7-4-10-3-5,1
		c4,5-2,18-14,31c-13,14-21,38-23,70c-2,27-7,84-11,127c-7,70-10,77-30,77c-11,0-29-6-39-13c-22-16-57-4-75,25c-9,14-5,22,25,44
		c40,31,146,65,184,59C624,8733,663,8728,698,8725z M1470,8634c6-14,14-23,19-19c6,3,9-7,8-22c-2-23,3-28,33-36c45-11,61-12,85-2
		c11,4,4-4-15-18s-42-33-51-42c-19-18-55-19-135-4c-77,15-87,24-79,67c7,37,12,43,59,80C1432,8667,1458,8666,1470,8634z M2743,8602
		c13-12,16-24,11-46c-8-41-13-45-51-34c-45,12-58,39-33,70C2692,8621,2718,8624,2743,8602z M13547,8582c17-11,27-78,13-87
		c-22-14-108-8-125,8c-11,12-23,13-45,7c-17-5-30-6-30-3s-8-1-17-8c-14-12-16-12-11,2s0,15-40,8c-26-4-110-15-187-24s-171-20-210-25
		c-38-5-95-12-125-14c-30-3-102-10-160-16c-58-5-131-11-163-11c-32-1-60-6-63-11s-144-8-312-7c-169,1-369,1-445-1
		c-152-4-178,4-141,41c49,49,218,59,824,51c113-1,250,2,305,7c55,6,133,13,174,16c40,3,83,8,95,10c20,5,47,8,175,20c29,3,56,7,60,9
		c3,2,40,7,81,11s109,10,150,14C13452,8590,13533,8591,13547,8582z M16884,7705c-16-14-40-28-54-32c-13-3-29-10-35-15
		c-5-5-21-18-35-29s-37-28-52-37c-16-9-28-20-28-24s-7-5-16-1c-10,4-14,1-12-8c3-15-7-30-54-80c-16-15-28-31-28-33c0-3-14-26-31-51
		c-40-59-69-142-76-221c-3-35-10-64-16-64c-5,0-4-7,3-15c10-12,10-15-1-15c-10,0-11-2-2-8c10-6,40-102,35-110c-2-1,7-12,18-24
		s20-25,20-28c0-13,88-69,141-90c41-16,77-21,152-21c54,0,101,2,106,5c4,3,29,8,56,12c49,6,151,41,209,71c29,15,30,15,17-1
		c-12-14-12-16,3-10c9,3,16,12,16,20s6,14,13,14s42,27,77,60c36,32,71,57,78,55c9-3,11,1,7,14s2,25,20,40c15,11,24,25,20,31
		c-9,14,8,13,24-2c11-11,12-8,6,12c-10,33-10,28-1,83c7,42,11,47,35,47l26,1l-25,12c-19,9-25,20-27,47c-1,19,4,38,10,42c9,6,9,8,0,8
		c-7,0-13,7-13,16c0,8,5,12,10,9c15-9,30,4,23,21c-4,11-9,12-16,5c-17-17-31-13-17,4c10,12,10,15-4,15c-9,0-16,7-16,16
		c0,13,6,15,28,10c15-4,33-8,41-10c8-1,18-11,22-22c12-29,10-34-8-27c-14,5-13,0,6-31c14-22,21-46,19-61c-3-13,0-26,5-28
		c7-2,7-11,2-23c-7-17-8-18-12-1c-3,9-8,15-13,12s-5-19,0-36c7-23,5-31-6-36c-7-3-14-9-14-14c0-4,7-6,15-3c8,4,15,1,15-5
		s-7-11-15-11c-10,0-15-10-15-30c0-16-5-30-11-30c-7,0-10-12-7-30c3-21,0-30-9-30c-25,0-50-23-45-42c2-10-1-18-7-18s-11,6-11,14
		s-5,18-11,22c-8,4-9-3-4-25c4-21,3-31-5-31c-7,0-10-7-6-16c5-12,2-15-10-10c-23,9-37-3-23-20c9-11,8-14-5-14c-9,0-19-7-22-15
		c-4-8-12-15-20-15s-14-4-14-8c0-5-12-15-27-22c-16-8-35-19-43-25c-28-21-138-55-156-48c-11,4-15,3-10-5c3-6,1-14-5-18
		c-6-3-15,0-20,7c-7,12-9,12-9,0c0-8-7-11-20-8c-11,3-18,1-15-3c8-13-7-19-69-23c-31-3-59-7-63-10c-3-3-24-4-47-2c-22,2-72,7-109,10
		c-53,4-88,15-147,45c-74,37-136,92-125,110c3,5-4,15-15,23c-30,21-70,146-70,217c0,84,17,152,61,244c50,105,54,111,116,173
		c49,49,153,123,173,123c6,0,10,5,10,11s9,9,20,6s18-1,14,4c-5,8,12,13,43,12c7-1,11,3,8,7c-7,11,22,21,40,13c9-3,15-2,14,3
		c-3,17,1,20,28,22l26,2L16884,7705z M17045,7705c29-28,31-40,9-49c-20-8-93,44-87,62C16975,7738,17019,7731,17045,7705z
		 M17137,7653c59-28,68-48,27-56c-33-6-79,6-79,20c0,6-3,14-7,18c-8,9,1,35,13,35C17095,7670,17116,7662,17137,7653z M17240,7610
		c0-5-2-10-4-10c-3,0-8,5-11,10c-3,6-1,10,4,10C17235,7620,17240,7616,17240,7610z M17280,7616c0-11-19-15-25-6c-3,5,1,10,9,10
		C17273,7620,17280,7618,17280,7616z M17407,7554c3,3-1,14-11,25c-16,17-15,18,13,17c26-1,28-3,18-21c-9-18-8-18,6-7
		c14,12,20,10,42-14c14-15,25-35,25-45s5-21,10-24c6-3,10-12,10-18c0-9-2-9-8,0c-5,8-24,11-50,9c-27-3-42,0-42,7c0,14-65,72-102,92
		c-17,9-25,21-22,29c4,11,17,7,55-21C17379,7564,17404,7550,17407,7554z M17145,7526c18-8,39-24,45-36c10-19,6-28-32-73
		c-50-59-78-102-78-117c0-5,12-10,28-10c40,0,105-41,116-72c7-21,5-35-9-63c-11-19-23-35-27-35c-5,0-8-5-8-12c0-6-25-36-55-65
		c-30-30-62-67-71-84c-20-39-67-60-100-45c-13,6-24,17-24,24c0,6-4,12-8,12c-5,0-7,14-4,31c3,19,25,52,63,92c75,78,79,102,12,76
		c-15-6-49-17-74-24c-43-11-47-11-73,12c-16,13-26,27-22,30c3,3,2,11-3,17c-6,8,7,28,38,62c52,56,81,94,81,107c0,5-21,6-46,2
		c-123-18-239,7-279,60l-20,27l23,18c19,15,28,17,60,8c80-22,344,15,407,59C17109,7543,17104,7543,17145,7526z M8411,7448
		c22-24,39-47,39-52c0-33,88-181,145-243c66-72,89-123,64-139c-7-4-14-3-16,3s-12,9-22,6c-24-6-69,17-105,56c-26,27-37,31-82,31
		c-67,0-84-7-84-35c0-12-8-46-17-75c-17-52-17-52-52-46c-44,7-53,21-47,73c5,37,2,44-24,66c-53,45-48,90,10,99c27,3,24-8,48,191
		c11,86,25,106,76,107C8365,7490,8382,7479,8411,7448z M11333,7461c43-10,86-26,97-36c41-37,12-89-43-81c-121,18-117,19-117-13
		c0-31,18-41,73-41c34,0,82-24,90-44c9-22-26-46-66-46c-63,0-50-18,23-30c39-6,68-15,66-19c-8-13-92-50-142-63c-27-7-60-23-74-35
		c-28-27-59-30-66-5c-3,9-9,24-13,32c-22,41-32,181-16,228c3,11,8,29,10,39s12,40,22,68c17,46,29,56,73,64
		C11253,7479,11290,7471,11333,7461z M8935,7420c111-32,208-71,219-89c10-16,26-14,26,4c0,8,9,19,19,25c52,27,104-2,161-90
		c18-28,36-50,40-50s37,36,71,79c63,78,93,98,130,86c23-8,35-49,21-78c-9-20-51-71-124-149c-14-16-29-46-33-66c-5-34-9-37-40-39
		c-29-1-42,6-77,41c-24,24-57,60-73,81c-17,21-39,50-51,64s-27,36-33,49c-16,30-37,23-33-11c2-15-1-27-7-27s-11-5-11-11
		c0-16-35-46-90-76c-80-45-155-96-163-109c-5-9-27-14-62-14c-45,0-55,3-60,20c-3,11-11,20-16,20c-16,0-10,18,13,40c21,19,22,23,9,88
		c-19,100-24,187-12,210c6,12,23,23,38,25c16,2,30,5,32,6C8831,7449,8879,7437,8935,7420z M9992,7373c28-32,49-301,26-320
		c-24-20-54,4-79,61c-13,30-28,57-34,59c-5,2-26,2-46,0c-32-4-39-11-60-55c-26-55-64-98-87-98c-21,0-52,30-52,50c0,10,9,37,19,61
		c16,34,17,46,8,58c-7,8-12,15-11,15c0,1,6,11,12,23c7,12,24,28,39,35c14,7,34,28,43,45c26,49,40,63,65,63c32,0,47-23,43-67
		c-2-29,1-38,14-41c16-3,17,2,12,41c-8,57,7,87,45,87C9964,7390,9984,7382,9992,7373z M10303,7372c47-13,47-12,52-52
		c2-18,13-42,24-54c12-12,21-27,21-34c0-6,5-14,10-17c7-4,9,21,8,70c-3,82,4,95,53,95c50,0,61-28,65-159c4-140-3-156-64-146
		c-52,9-122,35-122,46c0,18-23,8-51-22c-24-25-31-28-48-19c-29,15-46,49-32,63c6,6,11,34,11,62c0,39-6,59-25,85c-28,38-30,52-14,82
		C10202,7393,10222,7393,10303,7372z M15053,7368c12-6,28-19,34-29c10-13,22-16,53-12c48,7,90-16,90-50c0-12-11-35-25-51
		s-25-35-25-41c0-7-8-16-17-19c-20-7-45-22-88-52c-45-31-103-56-145-61c-31-4-43,0-72,26c-20,17-38,43-41,57c-8,45,23,115,73,165
		C14961,7372,15009,7392,15053,7368z M10941,7333c17-19-1-35-53-48c-33-8-49-20-72-53c-29-41-29-42-10-57c15-13,38-15,123-11
		c57,3,110,11,118,17c7,7,16,9,20,6c7-8-16-37-29-37c-5,0-30-15-56-32c-87-61-149-71-225-39c-57,25-91,71-83,112
		c17,87,72,143,152,156C10886,7357,10925,7353,10941,7333z M5616,7278c17-67,22-220,7-225c-7-3-15,8-19,23c-6,25-8,26-14,9
		c-7-19-7-19-17,0c-14,25-33,127-33,172c0,48,16,73,43,69C5600,7324,5608,7313,5616,7278z M1760,7300c41-11,96-55,80-65
		c-6-4-20-3-33,1c-51,17-205,1-214-22c-8-22,16-44,48-44c28,0,68-16,80-33c3-4,10-7,15-6s17-1,26-5c26-12,11-27-15-17
		c-22,9-125-5-138-18c-4-3-9-18-13-33c-5-24-3-28,14-28c13,0,20-7,20-19c0-11,10-22,23-26c36-11-61-31-133-26c-14,1-20,5-15,9
		c6,4,16,18,23,30c11,21,11,26-3,36c-34,24-27,176,8,176c8,0,8,3,0,11s-8,20-1,40C1550,7312,1651,7329,1760,7300z M2680,7278
		c22-21,24-25,11-32c-4-3-21,6-37,19c-16,14-33,25-39,25c-5,0-3-5,5-10c12-7,10-11-10-19c-22-8-22-10-5-11c16-1,15-4-7-12
		c-29-10-40-48-14-48c8,0,16-7,20-15c3-8,10-15,16-15c5,0,10,7,10,15c0,10,9,15,28,14c16-1,20-3,10-6c-10-2-18-8-18-13s10-6,22-1
		c16,6,30,3,45-7c30-19,29-32-2-32c-14,0-25,5-25,10c0,6-9,10-20,10s-20-4-20-9c0-6-19-11-42-13c-37-3-43-6-46-28c-2-20,4-28,29-39
		c26-12,32-12,40,0c7,11,9,11,9,1c0-35-66-65-125-55c-43,7-54,22-30,39c16,12,17,14,2,20c-18,7-24,64-7,64c6,0,8,15,6,33
		c-2,17,3,53,12,79c15,47,15,47,53,44c22-2,39,0,39,5C2590,7307,2660,7297,2680,7278z M775,7278c-3-7-33-20-68-29
		c-67-18-156-49-172-62c-49-36-59-46-54-51c3-3,56-18,118-34c62-17,116-34,120-39c3-5,15-13,25-16c35-13,9-18-38-7c-26,6-52,8-57,5
		c-5-4-9-1-9,4c0,6-5,11-11,11c-5,0-7-4-4-10c8-13-10-13-58,1c-21,5-35,14-32,20c4,5-1,9-10,9s-13,5-10,10c8,14-38,13-52-1
		s-36-2-27,13c5,7,2,9-8,5c-12-4-16,1-16,21c0,37,13,49,48,47c21-1,27,2,21,9c-7,8,5,17,35,30c24,10,44,21,44,25s23,14,51,21
		c27,8,52,18,55,22s30,8,59,8C764,7290,778,7287,775,7278z M2730,7280c0-5,7-10,16-10c8,0,12-5,8-11c-3-6,0-15,7-20c12-7,11-9-1-9
		c-9,0-24,14-33,30c-10,17-13,30-8,30C2725,7290,2730,7286,2730,7280z M6073,7273c-7-2-21-2-30,0c-10,3-4,5,12,5
		C6072,7278,6079,7276,6073,7273z M5975,7240c-22-24-35-26-35-5c0,9,10,19,23,24C5993,7271,5997,7264,5975,7240z M3944,7238
		c5-29,22-188,19-188c-1,0-9-3-18-7c-14-5-16-2-10,15c7,23-10,31-18,10c-4-9-6-8-6,2c-1,8-7,27-15,42c-18,34-22,75-11,108
		C3899,7264,3937,7275,3944,7238z M4384,7248c7-7,11-31,10-53s-3-77-5-123c-2-53-7-81-13-79s-13,15-16,28c-4,17-11,24-27,23
		s-25,7-32,26l-9,28l-96-5c-95-5-96-5-107,21c-7,14-16,26-21,26c-4,0-8,11-8,25s5,25,10,25c6,0,10,8,10,18c0,21,19,42,38,42
		c9,0,13-11,10-35c-3-44,11-55,71-55c36,0,41-2,32-14c-9-10-8-15,3-19c8-3,16,2,19,13c3,13,11,17,25,13c22-5,29,2,36,38
		c7,40,17,58,34,62c10,3,18,5,20,6C4370,7259,4377,7254,4384,7248z M6538,7223c20-15,32-21,28-15c-4,7-1,12,7,12c13,0,38-25,87-87
		c16-20,12-56-5-49c-8,3-22,3-31-1c-13-5-13-7-2-14c10-7,10-9,1-9c-7,0-22,9-33,20s-30,20-42,20c-13,0-35,6-49,14c-20,10-29,11-42,1
		c-10-7-17-17-17-22s-9-18-20-28c-10-9-19-20-18-24c2-21-4-23-17-3c-15,20-13,25,24,84c22,35,45,68,51,75c5,7,10,16,10,21
		c0,8,21,32,29,32C6501,7250,6519,7238,6538,7223z M3130,7220c0-11-4-20-10-20c-5,0-10,9-10,20s5,20,10,20
		C3126,7240,3130,7231,3130,7220z M2130,7211c0-5,26-37,58-71c31-35,63-71,70-81c22-31,29-22,29,36c0,30,5,61,11,67c7,7,12,8,12,2
		s13-9,29-6c28,4,30,2,37-44c4-26,7-73,7-104l1-55l-34-3c-23-2-36,2-42,12c-5,9-15,16-23,16s-11,7-8,19c6,23-23,33-49,17
		c-13-8-25-1-59,32c-23,24-47,41-53,39s-12-26-14-53s-7-53-13-58c-6-6-9-5-9,3c0,9-8,11-25,7c-22-6-25-3-25,19c0,15,4,24,10,20
		c6-3,10-2,10,4c0,5-5,11-11,13c-8,3-10,17-5,43c5,25,10,34,15,26c6-10,10-9,14,4c4,8,2,24-5,34c-6,10-8,30-4,44c5,23,12,27,41,27
		C2114,7220,2130,7216,2130,7211z M1173,7190c-6-22-25-39-21-18c2,7-3,11-12,9c-8-2-28-6-45-8l-30-5l23,17c12,9,26,14,30,11
		c4-2,14-1,22,5C1165,7216,1178,7211,1173,7190z M2985,7201c8,12,35,11,35-2c0-5-4-8-9-4c-6,3-14-2-19-11c-7-13-1-25,29-54
		c56-53,53-70-19-108c-32-17-42-19-42-8c0,7-8,17-17,20c-10,4-13,10-7,14c18,13,45,62,39,72c-3,6-17,10-30,10s-27,5-31,12
		c-5,8-2,9,9,5c10-3,17-2,17,3c0,6-4,10-10,10c-5,0-10,11-10,24c0,23,3,24,30,16C2968,7195,2982,7195,2985,7201z M4931,7190
		c6,0,9-8,7-17c-2-12,3-18,15-17c18,2,25-15,7-17c-13-2-22-5-40-12c-78-33-216-42-243-16c-29,30-1,46,113,67c58,11,111,18,118,16
		C4916,7192,4926,7190,4931,7190z M5929,7191c11-7,12-13,4-23c-28-34-16-75,33-113c30-23,39-25,65-16c16,6,42,20,56,31l27,21l-42-7
		c-44-7-46-6-36,20c5,13,9,14,21,4c8-6,40-12,71-13c93-2,113-21,69-63c-25-23-87-41-87-25c0,12-49,5-67-9c-14-11-64-3-62,10
		c3,20-3,23-25,9c-20-14-25-14-30-2c-3,8,2,15,12,18c15,3,14,5-3,11c-42,15-50,24-53,54c-2,23-7,29-19,25c-11-4-14-2-11,8
		c2,8,14,15,26,17c16,2,22,10,22,28C5900,7202,5907,7205,5929,7191z M1050,7166c0-3-4-8-10-11c-5-3-10-1-10,4c0,6,5,11,10,11
		C1046,7170,1050,7168,1050,7166z M1134,7148c-3-4-16-8-30-8c-15,0-24-6-24-15c0-13-12-17-36-14c-7,1-24-22-24-32c0-8,34-19,74-25
		c16-2,34-8,40-13s25-8,43-6c21,1,30-2,26-11c-2-7,4-15,14-18s1-4-20-1c-22,2-35,0-32-6c4-5-26-8-74-6c-67,2-84,7-104,25
		c-13,12-27,19-30,15c-4-3-7,6-7,20c0,15-4,27-10,27c-5,0-10,7-10,15s5,16,10,16c20,3,25,4,39,13c10,6,12,5,7-2c-12-20,23-13,59,11
		C1078,7155,1145,7167,1134,7148z M17545,7141c3-5,1-12-5-16c-5-3-10,1-10,9C17530,7152,17536,7155,17545,7141z M6700,7044
		c0-9-11-14-35-14c-20,0-35,5-35,12c0,6,3,8,6,5c4-3,16,0,27,8C6685,7071,6700,7067,6700,7044z M798,7022c2-7-2-10-12-6
		c-9,3-16,11-16,16C770,7045,793,7037,798,7022z M3999,6985c-9-8-40,25-34,35c5,8,12,4,22-10C3995,6998,4000,6987,3999,6985z
		 M17490,7020c0-5-5-10-11-10c-5,0-7,5-4,10c3,6,8,10,11,10C17488,7030,17490,7026,17490,7020z M2242,6998c-7-7-12-8-12-2
		c0,14,12,26,19,19C2251,7012,2248,7004,2242,6998z M6100,6996c0-2-7-7-16-10c-8-3-12-2-9,4C6081,7000,6100,7004,6100,6996z
		 M10617,6124c29-15,61-34,71-43s26-20,35-26c35-21,133-90,153-107c35-31,20-63-55-118c-69-51-173-110-195-110c-21,0-47,35-43,60
		c2,12,14,31,28,42l24,20l-170-6c-192-6-404-23-905-71c-36-4-106-9-156-11c-87-5-91-4-117,22c-44,43-30,112,24,115c31,2,59,1,62-1
		c1-1,34-3,72-5c39-2,82-6,97-10c14-4,104-2,200,5c413,26,846,59,882,67c47,10,41,17-56,63c-60,28-68,35-74,66c-5,26-2,40,11,54
		C10529,6157,10555,6155,10617,6124z M1036,6056c46-9,82-26,89-44c3-9,3-41-1-71c-5-44-14-62-46-96c-48-53-212-178-258-197
		c-80-34-92-38-101-33c-5,4-9,1-9-6c0-24-65,0-97,38c-41,45-42,75-5,134c33,51,186,210,220,228c12,7,20,16,17,20c-10,17,23,30,85,33
		c36,2,68,2,71,1S1020,6059,1036,6056z M11306,6044c19-9,34-20,34-25c0-6,8-13,19-17c20-8,107-82,187-160c58-57,102-88,111-78
		c4,3,2,48-4,99c-7,57-7,99-2,109c13,24,56,33,84,18c31-17,42-49,49-144c3-44,13-90,21-102c26-40,13-104-22-104c-9,0-21-8-28-17
		c-11-15-18-15-56-4c-68,19-139,59-199,111c-30,26-74,59-97,73s-44,31-48,37c-3,5-10,10-14,10c-12,0-31-112-31-184c0-37-5-76-10-87
		c-20-36-77-17-88,30c-2,9-4,105-4,214c-1,194,0,198,22,217C11258,6064,11263,6064,11306,6044z M12232,6009c53-14,66-41,32-68
		c-21-16-41-21-90-21c-64,0-85-12-41-24c12-3,41-6,65-6c29,0,48-6,63-21l21-21l-31-19c-17-10-42-21-56-25c-31-8-43-24-17-24
		c31,0,82-21,82-34c0-16-67-53-110-60c-19-4-70-8-112-10c-93-5-109,4-131,79c-18,60-29,205-18,224c8,13,56,25,166,40
		C12109,6027,12174,6023,12232,6009z M1545,5986c25-29,33-56,29-107c-6-71-20-104-63-159c-93-117-156-134-254-69
		c-76,50-99,117-71,207c21,66,35,85,86,118c38,24,91,31,117,15c10-6,22-4,35,5C1448,6012,1527,6005,1545,5986z M4270,5978
		c23-31,23-33,10-102c-13-64-15-117-10-241c3-59,2-63-21-70c-28-9-55,17-66,63l-9,37l-104,5l-105,5l-22,45c-18,37-22,57-18,108
		c3,34,14,79,24,100c20,38,55,67,71,57c19-12,21-65,4-119c-23-74-13-86,72-86c72,0,66-7,85,114c11,73,32,116,57,116
		C4243,6010,4257,5996,4270,5978z M14031,5964c79-25,124-58,131-97c7-38-1-53-42-78c-22-13-38-28-36-34c1-5,22-14,46-20
		c25-6,49-20,58-33c13-20,12-22-14-32c-79-31-232-12-266,33c-17,22-18,21-18-38c0-70-17-109-47-113c-35-5-54,36-56,115
		c-2,146,7,318,17,326C13822,6006,13949,5990,14031,5964z M14607,5965c18-4,39-18,48-31c14-22,14-24-12-37c-16-8-66-17-112-20
		s-88-10-94-16c-11-11,6-16,91-26c70-8,82-13,82-39c-1-32-42-55-110-63c-33-3-60-10-60-16s38-7,106-3l105,7l-3-27c-2-23-14-34-58-57
		c-51-27-62-28-147-25c-127,4-130,8-138,157c-7,148,7,194,68,211C14395,5986,14563,5975,14607,5965z M2370,5963c51-34,67-60,74-116
		c8-59-4-96-40-129c-31-27-122-77-146-80c-13-2-27-6-33-8c-5-3-21-5-35-5s-27-3-30-7c-8-11-99,10-125,29c-31,23-48,63-47,114
		c1,31,9,50,37,84c19,24,44,47,55,50c11,4,20,10,20,14c0,5,27,16,59,25s62,23,65,31C2232,5987,2338,5985,2370,5963z M4742,5944
		c21-13,40-24,42-24c3,0,20-13,38-30c18-16,44-30,58-30c29-1,52-16,68-47c19-34,14-50-16-61c-15-5-54-35-87-66c-67-64-99-70-124-25
		c-13,24-12,28,12,61c15,19,24,37,21,41c-3,3-68,3-144,0c-118-5-144-3-174,11c-20,9-36,23-36,31c0,27,44,38,165,43c66,2,122,6,125,9
		c2,2-10,15-28,29c-47,37-59,64-36,81C4650,5984,4693,5976,4742,5944z M13332,5942c19-19,0-42-52-61l-45-17l-3-84
		c-3-92-17-120-58-120c-32,0-54,37-64,110c-5,34-12,65-15,69c-4,3-34,6-67,6c-51,0-63,4-79,24c-30,37-11,76,44,91
		C13030,5970,13319,5955,13332,5942z M2790,5935c7-8,24-11,48-8c44,6,92-11,92-31c0-8,4-16,10-18c5-1,11-24,14-49c4-46,3-47-53-94
		c-103-88-211-120-301-91c-25,7-44,19-42,26c1,6-2,9-7,6c-19-12-36,28-36,88c0,54,4,65,30,94C2616,5938,2752,5981,2790,5935z
		 M3620,5950c0-5-5-10-11-10c-21,0-129-53-129-62c0-6,8-7,18-3c53,22,125,45,128,42c3-2-17-12-43-22c-61-23-153-83-153-100
		c0-7-3-20-6-29c-8-21,67-40,133-32c65,8,155,40,176,64c15,16,15,20,1,40c-8,12-23,22-33,22s-28,11-41,25c-20,21-21,25-6,25
		c9,0,14,5,11,10c-14,23,37,4,79-30c25-20,56-94,56-135c0-42-32-67-122-97c-51-16-79-19-145-15c-94,5-129,24-161,85
		c-17,33-18,42-7,68c23,53,93,106,195,145C3615,5962,3620,5963,3620,5950z M12740,5940c16-16,18-24,9-48c-6-16-21-40-35-53
		c-31-29-30-36,7-44c40-9,47-30,18-62c-22-23-29-25-81-19c-53,5-61,3-101-25c-45-31-76-31-78,0c-2,29,3,56,12,66c16,16,10,31-18,45
		c-52,26-83,62-83,95c0,41,16,55,61,55c28,0,48-9,79-35c23-19,46-35,50-35c5,0,22,11,38,25c31,26,81,55,95,55
		C12717,5960,12729,5951,12740,5940z M15257,5928c36-9,41-13,33-28c-18-34-75-50-217-61c-76-6-140-13-142-15c-11-10,15-17,94-25
		c47-5,94-13,105-19c23-12,16-44-14-66c-14-11-17-18-8-21c18-7,15-33-5-40c-10-4-35-18-56-31c-30-20-55-26-117-30c-77-4-80-4-109,25
		c-29,30-30,31-25,124c5,126,4,120,16,157c11,38,21,41,143,45C15089,5946,15210,5941,15257,5928z M15444,5878c11-15,16-45,16-94
		c0-48,4-73,13-77c6-2,50-3,97-1c91,3,190-11,190-28c0-5-14-23-31-39c-41-38-124-59-235-59c-130,1-154,25-154,158
		c0,72,14,133,36,155C15391,5908,15429,5899,15444,5878z M1730,5733c23-20,26-60,6-86c-13-17-15-17-29,4c-9,11-20,18-26,14
		c-7-4-11,6-11,29s6,39,18,45C1710,5752,1707,5753,1730,5733z M3146,5681c-1-16-8-36-15-45c-13-15-15-16-23-2c-5,9-16,16-24,16
		s-17,13-20,30c-9,43-9,44,17,57c20,10,27,9,45-8C3139,5717,3147,5698,3146,5681z M3999,5531c7-11,8-40,2-85c-1-4-47-5-103,0
		c-57,4-148,8-203,8c-55,1-103,5-106,10c-4,5-15,5-25,1c-11-5-68-10-129-11c-133-3-245-9-385-20c-58-5-248-8-423-7
		c-314,1-376,7-452,39l-29,12l37,15c31,13,112,17,495,21c389,4,1153,24,1159,30c1,1,36,1,78,1C3968,5545,3993,5541,3999,5531z
		 M16075,4536c17-13,51-29,74-36c52-14,103-42,157-86c33-27,44-44,54-84c12-51,6-185-8-176c-4,2-7-11-8-29c-1-42-71-138-96-132
		c-11,3-15,0-11-9c3-8-5-15-24-19c-15-4-39-11-53-16s-45-11-69-14c-23-3-48-8-55-12c-37-23-278,39-340,88c-13,10-29,19-35,19
		s-33,28-62,62c-48,58-51,64-47,108c3,26,15,68,27,93c24,49,87,117,108,117c7,0,13,4,13,10c0,10,149,85,235,119
		C16003,4565,16037,4564,16075,4536z M6371,4536c70-29,89-78,53-131c-27-41-31-65-10-65c8,0,27-18,43-40l28-40h88
		c130,0,131,1,123,121c-8,119,0,139,49,139c66,0,92-49,82-154c-8-83-3-89,66-81c80,10,91,21,89,89c-1,45,3,61,21,82
		c22,25,24,26,59,11c45-19,49-26,50-88l1-51l59,5c67,6,84,16,93,58c9,39,38,54,75,39c16-7,31-19,34-27c8-20,54-13,196,29
		c141,42,185,46,199,19c7-12,9-21,5-21c-3,0,0-7,7-16c11-14,10-20-14-40c-16-14-41-24-59-24c-16,0-69-11-117-25
		c-47-14-111-33-141-42c-68-20-77-26-85-66c-4-18-15-50-25-72s-21-48-24-57c-3-10-17-20-32-24c-41-10-68,27-61,84c2,23,1,44-3,47
		s-25-2-46-11c-63-27-106-28-133-5c-29,25-17,25-124,4c-63-12-91-22-98-35c-12-22-47-23-73-3c-38,29-238,8-284-29
		c-64-52-184-96-261-96c-52,0-117,27-145,59c-21,23-36,25-98,12c-24-6-68-15-98-21s-72-16-92-22c-32-9-45-8-78,7c-22,10-40,23-41,29
		c-3,35,5,72,19,82c8,6,72,19,141,28c69,10,139,20,154,23l28,6l-25,26c-39,41-30,109,21,151c75,62,108,83,178,114
		C6253,4552,6317,4559,6371,4536z M14741,4523c16-10,29-23,29-30s9-13,20-13c44,0,169-57,208-96c28-27,38-105,22-165
		c-12-43-6-64,10-39c8,13,10,12,10-2c0-10-4-18-10-18c-5,0-10-9-10-19c0-34-118-136-196-169c-83-35-157-42-249-25
		c-123,23-209,85-240,175c-38,111,37,242,204,358c25,17,120,51,169,59C14710,4540,14725,4532,14741,4523z M9146,4476
		c82-6,176-23,147-25c-18-1-16-30,2-37c31-12,1-25-54-24c-134,4-171,0-171-15c0-9,9-15,23-15c13,0,50-5,81-12c48-9,62-17,76-41
		c29-47,3-76-50-54c-33,13-130,19-130,7c0-4-3-15-6-24c-8-21,58-37,150-35c95,2,104-4,66-43c-29-29-35-30-123-33l-92-3l-3-31
		c-2-17-7-31-13-31c-5,0-9,4-9,9s-11,8-25,7c-14,0-25-7-25-15c0-9-3-11-9-5c-5,5-11,83-14,173c-5,167-10,183-46,175c-9-3-22,0-30,5
		c-17,11-5,51,15,51c8,0,14,5,14,10c0,6,10,10,23,10c12,0,36,8,52,19c28,17,31,17,46,1C9053,4488,9083,4481,9146,4476z M10111,4448
		c49-19,106-54,135-83c17-17,44-77,44-100c0-29-24-62-34-46c-6,9-11,9-22,0c-7-6-11-15-9-20c3-4-14-13-37-19c-24-5-57-14-75-19
		c-20-5-35-5-41,1s-22,11-36,11c-35,0-51,49-50,161c1,84,3,91,28,113C10047,4475,10045,4475,10111,4448z M9522,4417
		c42-29,75-60,122-119c21-27,42-48,46-48s9,36,12,79c5,87,17,111,55,111c43,0,51-19,56-136c2-60,6-117,8-128c5-23-27-30-108-26
		c-55,3-80,16-129,66c-29,30-55,51-58,46c-2-4-6-36-8-71c-3-66-21-91-40-57c-8,13-13,15-24,5c-22-18-26,8-23,151c3,103,7,133,19,140
		C9473,4445,9486,4442,9522,4417z M10848,4412c2-7,26-12,60-12c67,0,125-14,147-36c19-20,20-78,0-94c-8-7-15-16-15-20s36-20,80-36
		c54-18,82-33,86-46c3-11,3-22,0-25c-14-15-109-14-172,1c-38,9-79,19-91,21c-24,6-55,58-47,80c3,8,23,22,45,32c54,23,49,35-13,31
		l-53-3l-1-120c-1-143-1-142-16-127c-8,8-15,8-24,1c-38-32-70,58-74,208c-3,121-1,135,20,140c11,3,20,9,20,14
		C10800,4434,10843,4425,10848,4412z M11543,4381c87-10,163-23,168-28c7-7,6-19-2-36c-12-27-13-27-116-27c-168,0-117-28,90-49
		c16-2,5-21-23-41c-17-12-52-25-78-30l-47-8l50-1c28,0,61-8,73-17c24-16,29-34,10-34c-6,0-20-7-30-16c-25-23-214-26-228-4
		c-12,19-23,102-22,167c0,30-5,56-11,60c-7,5-18,16-26,26c-12,15-11,20,4,37c10,11,21,20,24,20S11456,4391,11543,4381z M4210,4350
		c12-7,12-13,4-27c-13-21-44-31-99-32c-22-1-46-5-53-10c-17-11-11-47,8-43c7,2,42,6,76,9c69,6,95-5,87-36c-5-19-60-31-140-31
		c-18,0-33-4-33-10s37-10,90-10c69,0,90-3,90-13c0-45-99-69-170-42c-25,10-55,17-67,17c-24,0-37,39-48,138l-6,56l53,12
		C4139,4361,4186,4366,4210,4350z M12150,4338c61-15,83-34,67-59c-6-10-17-19-24-19s-19-13-27-29c-13-24-24-30-63-35
		c-27-3-60-4-75-2c-20,2-29-2-33-15c-11-34,4-39,115-39c83,0,109-3,113-14c9-24-109-60-230-71c-85-7-88-4-99,96c-8,77,7,136,43,180
		c27,31,27,31,97,24C12073,4352,12125,4344,12150,4338z M966,4341c-4-5,0-11,6-14c7-2,0-10-17-17c-123-52-254-124-269-148
		c-8-13,29-29,124-53c95-23,110-32,110-63c0-36-45-71-130-100c-46-16-89-6-91,21c-1,7-2,18-3,24s19,19,43,28c61,22,61,36,2,51
		c-55,13-131,65-131,90c0,27,142,121,250,166C915,4349,976,4358,966,4341z M2416,4329c13-11,7-50-10-61c-6-4-28-8-50-8h-38l7-47
		c4-27,13-66,21-88c7-22,14-58,14-79c0-38,0-39-20-21c-15,14-23,15-33,6c-11-8-17-8-24,1c-20,26-53,139-53,183c0,36-3,45-17,45
		c-10,0-29,9-42,19c-26,20-25,22,39,53c28,14,51,16,115,12C2369,4340,2410,4334,2416,4329z M3600,4310c20-21,48-55,61-74
		c13-20,26-36,29-36s22,20,42,44c45,52,84,71,120,57c21-8,27-20,37-72c7-35,19-68,26-74c13-9,19-33,16-63c-2-20-72-3-97,24
		c-12,12-24,29-27,36c-4,10-10,8-22-7c-9-11-30-27-48-36c-30-15-35-14-79,8l-48,23v-51c0-49-1-51-22-44c-13,4-32,7-42,6
		c-37,0-45,28-46,155v120l28,11c15,6,29,11,31,12S3579,4332,3600,4310z M1530,4279c0-14,7-19,25-19c14,0,25-4,25-8c0-5,15-26,34-48
		c31-36,34-44,29-88c-5-39-10-49-30-57c-49-18-63-12-63,27c0,31-3,35-22,32c-20-3-23-10-26-56c-4-62-22-76-52-41c-16,20-19,21-20,7
		c0-9-4-19-10-23c-5-3-8,7-5,24c2,16-2,48-7,71c-8,32-8,48,0,61c7,10,12,33,12,50c0,33,36,103,49,95c4-3,13-1,21,4
		C1508,4321,1530,4304,1530,4279z M3125,4295c33-4,80-12,105-19s64-12,87-11c56,4,69-13,82-103c10-78,6-107-13-95c-6,4-24,8-39,9
		c-38,2-54,28-62,97l-7,58l-77-6c-42-4-82-9-90-11c-13-4-12-49,5-170c6-41-10-71-22-41c-3,9-18,14-37,13c-31-1-32,1-44,54
		c-7,30-15,76-18,102l-6,47l-68-4c-53-4-72-1-81,10c-29,35,13,57,133,71c32,4,60,11,63,16s11,5,17-1C3060,4306,3092,4299,3125,4295z
		 M1962,4291c13-11,32-37,42-58c15-34,24-40,78-56c51-15,59-20,47-31c-24-22-79-36-144-36c-61,0-62,0-57-25c4-24,3-25-23-15
		c-15,6-36,8-46,5c-15-5-20,5-34,72c-9,43-21,87-27,97C1769,4297,1905,4335,1962,4291z M12431,4277c10-8,18-37,23-82
		c4-38,11-74,15-78c8-8,170-4,231,4c19,3,26-1,28-17c4-29-17-44-95-64c-50-12-92-16-154-12c-80,4-88,6-100,30c-9,15-14,57-14,108
		c0,69,4,86,20,103C12409,4293,12410,4293,12431,4277z M1332,4270c29-45,28-48-8-60l-36-12l6-57c4-32,4-60,1-63c-14-14-54,6-60,31
		c-7,24-8,25-16,6c-8-16-8-15-4,7c3,15,1,38-5,52c-9,25-18,29-92,41c-44,7-52,35-16,52C1123,4276,1326,4279,1332,4270z M15780,2970
		c11-11,20-33,20-49c0-27-93-294-205-584c-25-66-45-124-45-130c0-34-22-86-34-81c-7,3-16-2-19-11c-6-13-10-13-29-3
		c-13,7-27,18-31,23c-14,18,3,105,44,213c71,188,127,369,145,465c3,16,14,49,25,74c10,24,19,49,19,55c0,18,42,48,67,48
		C15749,2990,15769,2981,15780,2970z M17383,2928c51-27,52-47,9-193c-16-55-35-120-41-145c-7-25-19-70-27-100c-16-62-22-87-58-253
		c-14-65-25-122-24-125c1-4-2-34-6-66c-5-41-11-55-17-45c-8,12-10,12-18,0c-21-33-76,16-67,61c2,13,7,41,11,63c10,65,55,295,70,365
		c7,36,17,88,20,115c20,159,59,300,88,320C17349,2943,17355,2943,17383,2928z M8055,2834l33-36l92,12c55,7,115,9,153,4
		c34-4,66-8,71-8c12-1,26-53,20-71c-3-8-20-17-37-20c-18-3-54-14-80-23c-37-12-50-13-56-4c-5,9-24,8-79-5l-73-17l3-41l3-40h121
		c102,0,125-3,141-18c11-9,23-14,26-11c4,4,11-5,17-20c15-40-6-56-77-57c-32,0-96-6-142-12l-84-12l2-75c1-41,6-79,10-83
		c5-5,44,1,88,12c81,20,230,44,248,40c6-1,24,3,40,10c44,17,48,15,52-23c3-30-1-38-24-53c-16-10-31-22-35-27c-3-5-19-11-35-13
		c-15-2-86-17-158-34c-71-16-140-32-153-35c-12-2-32-15-43-28c-29-33-67-24-73,18c-16,104-38,326-40,412c-2,56-9,111-16,123
		c-23,45,8,171,43,171C8018,2870,8037,2854,8055,2834z M14092,2796c35-48-5-111-159-248l-53-47v-65c0-51-4-67-17-75
		c-10-6-12-11-5-11c6,0,12-4,12-9c0-12-28-41-39-41c-19,0-61,55-67,87c-6,29-14,38-58,59c-84,40-173,137-211,228
		c-22,53-12,112,20,118c31,6,57-17,86-75c21-44,131-167,149-167c9,0,112,93,212,192c58,57,79,72,108,77
		C14073,2819,14083,2809,14092,2796z M9799,2796c35-8,72-23,84-34c49-49-18-73-187-66c-99,5-125,9-148,25c-32,23-36,55-10,75
		C9561,2814,9715,2814,9799,2796z M15257,2780c16-6,40-25,52-41c21-29,22-34,10-76c-7-25-22-57-34-72c-12-14-41-66-63-114l-41-88
		l47,6c26,4,64,11,84,16c26,7,45,6,58-1c21-11,28-40,10-40c-6,0-16-11-22-25c-7-15-19-25-33-25c-12,0-46-13-77-29
		c-112-57-188-64-235-23c-57,49-54,59,49,167c111,116,177,225,136,225c-7,0-35-14-63-30c-60-36-115-40-145-10c-11,11-20,25-20,31
		c0,24,41,67,92,94C15138,2786,15204,2798,15257,2780z M8721,2747c19-18,60-66,92-106l59-73l41,6c59,10,92,28,175,96
		c79,64,114,74,132,39c20-36,3-62-90-139c-49-41-93-84-96-95c-2-11,2-40,10-64c16-43,13-91-6-91c-5,0-6-5-2-11c11-18-35,0-58,23
		c-11,11-33,48-49,83c-21,48-34,64-54,69c-61,16-143,83-222,185c-45,57-51,79-31,99C8644,2790,8686,2781,8721,2747z M13010,2744
		c23-14,29-27,39-85c6-37,11-97,11-133v-65l46-7c25-3,74-4,109,0c59,6,63,5,70-16c17-52,16-73-4-85c-33-20-253-27-296-9
		c-33,14-35,17-35,64c0,27-3,117-7,200l-6,152h22C12972,2760,12994,2753,13010,2744z M9472,2733c21-24,29-102,20-200
		c-5-52-4-86,3-95c15-19,101-24,315-18c77,2,116-1,145-13c22-9,32-16,23-16c-10-1-26-9-36-18c-58-58-258-97-370-73c-42,8-65,9-79,2
		c-48-26-107,50-118,154c-10,88,11,265,32,282C9430,2755,9454,2753,9472,2733z M12460,2690c42-35,97-124,158-255
		c26-56,34-111,17-125c-29-24-61,0-120,92c-35,54-61,85-65,78c-4-6-8-39-9-73c-1-46-6-66-21-79c-11-11-20-15-20-10c0,6-9,12-19,15
		c-26,6-34,63-35,237C12345,2754,12362,2772,12460,2690z M945,2715c134-3,159-12,211-74c42-51,39-78-19-133c-47-44-54-68-21-68
		c14,0,112-38,124-47c2-2-1-8-9-12c-10-6-9-10,4-14c9-4,18-1,21,8c5,12,9,12,30-1c41-27,41-74-1-74c-5,0-3,4,5,10c8,5,11,13,6,17
		c-4,4-13,0-20-10c-15-19-82-25-70-5c5,7,3,8-5,4c-21-13-235,34-291,64c-25,13-28,7-33-79c-3-43,1-74,11-93c13-27,12-30-4-43
		c-15-11-22-10-40,2c-21,13-36,36-39,58c-1,6-8,24-15,40c-13,31-16,257-5,369c8,77,20,99,48,90C845,2720,896,2716,945,2715z
		 M12728,2717c7-7,13-58,16-113c2-54,9-144,16-198c10-84,9-101-3-113c-23-24-55,1-85,65c-24,52-26,68-26,192c-1,148,8,180,48,180
		C12707,2730,12722,2724,12728,2717z M10646,2712c38-26,15-71-36-72c-35,0-174-46-178-58c-3-9,56-42,77-42c11,0,97-45,119-63
		c6-5,12-25,12-43c0-38-17-53-102-88c-29-12-72-34-95-49c-49-31-69-33-101-11c-24,17-30,65-9,82c25,21,85,50,115,57
		c18,3,32,10,32,13c0,4-35,23-78,44c-53,25-82,45-94,66c-24,40-23,85,2,107C10353,2694,10609,2738,10646,2712z M16240,2705
		c14-7,36-25,49-39c25-27,25-40-4-133c-9-29,7-31,133-17c118,13,169,39,201,102c10,20,33,50,49,66c26,24,36,28,67,22
		c20-4,39-14,42-23c7-19-12-78-38-114c-23-33-17-39,38-39c51,0,83-14,83-36c0-8-19-35-41-59c-39-42-45-45-91-45c-62,0-103,27-125,81
		c-8,21-22,39-29,39c-34,0-220-62-239-80c-11-10-49-24-86-31c-63-11-69-11-103,10c-30,19-36,28-36,58c0,22,7,41,20,51
		c10,10,22,29,26,44c6,25,2,29-38,47c-52,22-65,44-43,77C16095,2717,16193,2728,16240,2705z M1828,2692c33-21,29-51-8-58
		c-16-4-30-10-30-15s-7-9-16-9s-12,5-8,13c4,6-1,5-12-4c-18-16-46-24-109-34c-59-10-53-26,10-25c113,1,145-13,139-62
		c-1-13-3-27-3-32c-1-4-10-6-21-3s-20,1-20-3c0-5-8-9-17-9c-10,0-38-4-61-11c-24-6-60-8-79-4c-28,5-35,4-31-7s32-14,124-16
		c172-2,214-12,201-47c-9-23-37-20-37,4c0,11-4,20-10,20c-5,0-10-10-10-22c0-25-20-63-20-40c0,10-3,10-15-2c-21-21-204-51-289-48
		c-22,1-37,20-33,42c1,8-3,20-11,25c-9,7-16,52-22,140c-5,72-12,141-15,155c-8,41,16,61,66,57c24-2,67-1,94,3
		C1668,2713,1802,2708,1828,2692z M11890,2695c7-8,19-15,27-15s11-4,8-10c-4-6,13-10,43-10c138,0,170-79,73-180
		c-107-112-265-155-400-111c-127,41-135,169-16,251c55,38,181,89,221,89C11863,2710,11883,2703,11890,2695z M2400,2688c0-9,3-9,8-3
		c8,12,52,18,52,7c0-15-67-71-93-77c-15-4-30-11-33-16c-6-10,19-39,34-39c11,0,51-42,51-55c1-5,7-10,14-10s11-10,9-23
		c-2-14,2-22,11-22c21,0,29-27,12-44c-11-11-12-15-2-19c24-9-9-42-77-76c-64-32-70-33-107-21c-27,9-38,18-36,31c5,29,28,49,56,49
		c94,0,119,83,34,110c-109,35-174,71-191,105c-12,23-12,29,4,46c9,10,27,19,39,19s25,3,29,7s30,15,59,24
		C2337,2702,2400,2705,2400,2688z M3465,2664c62-10,115-44,122-77c4-20,8-25,14-15c13,19,11,0-2-24c-8-15-8-19,0-14
		c24,15,9-26-19-51c-16-14-30-31-30-37s20-19,43-30c23-10,64-29,91-42c28-13,57-24,66-24c41,0,46-54,6-66c-11-4-24-12-28-18
		c-5-7-15-3-31,12c-18,17-26,20-29,10c-4-10-10-11-29-2c-43,21-93,42-174,74c-94,38-94,38-104,82c-7,32-6,37,19,52c16,9,34,16,42,16
		c31,0,84,21,94,38c10,15,8,18-20,18c-17,0-61,3-98,8l-68,8l2-94c1-103-7-142-27-134c-7,2-16,2-19-1c-12-12-56-9-56,4
		c0,7,5,13,10,13c6,0,10,5,10,10c0,6-6,10-14,10c-17,0-25,44-28,159c-2,73,0,85,17,98c12,9,31,12,49,9c16-4,34-2,40,3s22,11,36,14
		C3375,2677,3391,2676,3465,2664z M2906,2649c4-7,0-9-13-5c-17,6-20,3-15-19c2-14,8-25,13-25s1-12-11-27c-14-20-21-50-25-107
		c-3-44-9-84-12-89c-3-6-1-7,5-3c6,3,13,2,16-3c9-14-21-33-46-29c-18,2-23,9-21,30c1,18-2,25-11,22c-13-5-17,5-34,101l-7,40l-58,2
		c-63,2-103,21-116,56c-9,23,15,50,54,60C2667,2663,2899,2660,2906,2649z M17852,2604c9-19,9-33,1-55c-15-38-6-69,19-69
		c35,0,57,19,64,58c8,48,30,72,65,72c47,0,69-40,69-124c0-88,7-116,29-116c37,0,91,91,91,154c0,40,20,56,70,56c31,0,33-3,69-92
		c9-24,14-27,43-22c18,4,50,17,70,30c21,13,48,24,60,24c24,0,68-36,68-55c0-25,40-62,80-75c59-19,76-49,61-101c-7-23-15-38-18-35
		c-4,3-12,1-18-4c-17-14-61,3-75,30c-6,11-19,20-29,20s-38,15-63,34l-45,35l-43-15c-77-27-175,5-202,66c-7,17-15,30-18,30
		s-23-27-44-60c-47-71-97-98-151-80c-25,8-35,19-44,50c-13,44-16,46-37,26c-8-8-34-18-59-21c-36-6-51-3-80,15c-46,28-61,60-69,140
		c-5,59-4,67,18,92C17774,2657,17830,2653,17852,2604z M2970,2600c0-28-22-25-56,7c-16,15-21,24-12,20c10-3,20-2,23,3
		C2935,2646,2970,2622,2970,2600z M3983,2587c7-7,14-19,17-27c8-26,8-170,0-170c-4,0-7-21-6-47c3-59-2-73-23-73c-22,0-41,19-41,43
		c0,14,5,17,21,12c15-5,19-4,15,4c-4,6-14,11-23,11c-10,0-14,6-10,19c3,14,1,18-9,14c-15-5-16,0-35,126c-12,83-12,84,12,101
		C3925,2619,3959,2614,3983,2587z M6160,2566c122-59,185-100,188-124c2-12,8-22,13-22c20,0,46-36,44-60c-3-43-34-102-51-96
		c-8,3-14-1-14-9c0-19-14-26-59-30c-20-1-47-7-59-14c-27-15-52-14-52,2c0,8-3,9-8,1c-11-16-80-25-86-11c-2,7-5,4-5-6
		c-1-14-6-17-23-11c-51,16-60,56-54,234C6001,2630,6010,2637,6160,2566z M4456,2577l27-23l-39-19c-21-10-40-17-42-16s-19-9-38-24
		c-19-14-39-23-46-19c-7,5-8,3-4-5c5-7,0-21-10-32c-24-27-28-58-9-79c8-9,12-20,8-24c-4-3,2-6,13-5c37,4,65-1,59-10c-3-6,4-9,15-8
		s20,5,20,9s4,8,10,8c5,0,7-7,4-15c-4-8-2-21,3-28c4-6,8-21,8-32c0-16-6-19-25-17c-14,2-27,8-28,13c-2,5-8,7-12,4
		c-19-11-98,18-132,48c-49,44-65,93-49,146c16,54,43,81,120,119C4385,2606,4420,2608,4456,2577z M5607,2583c3-7-3-9-16-6
		c-25,6-27-3-4-25c16-16,15-17-5-20c-29-4-28-19,1-25c13-3,6-5-18-6c-22-1-58-5-80-7c-22-3-48-6-57-6c-15,1-34-26-25-35
		c4-4,82-10,155-12c44-1,60-24,25-35c-10-3,10-4,45-2c62,3,67,1,56-28c-8-20-34-21-34-1c0,8-3,15-7,15c-16,0-38-20-38-32
		c0-10-27-14-105-16c-57-1-108-6-113-11c-20-20,7-31,72-31c81,0,227-17,259-31c18-7,22-14,16-31c-5-17-3-20,10-15c11,4,15,3,10-4
		c-4-7-21-9-40-6c-23,4-33,2-31-6c1-9-33-12-128-12c-108,0-135-3-158-18c-15-9-27-14-27-10c0,5-5,1-10-7c-9-13-10-13-10,0
		c0,8-10,20-22,25c-44,19-53,58-52,224c1,199-9,189,185,187C5560,2595,5605,2591,5607,2583z M9841,2569c20-10,36-55,25-67
		c-8-7-89-18-213-28c-68-6-87-4-108,10c-27,18-35,66-12,84c6,5,54,11,106,11c52,1,97,3,99,6C9745,2592,9820,2581,9841,2569z
		 M4862,2567c4-6,8-7,8-2c0,6,19,9,45,7c38-3,44-6,34-18c-6-8-9-15-5-15c3-1,9-2,14-3c13-3,52-31,52-37c0-12-63-30-70-20
		c-3,6-11,6-19,1c-11-6-14-31-13-94c0-48-3-86-9-86c-5,0-8-13-7-30c1-16,7-30,12-30c6,0,2-8-7-17c-17-17-19-17-33,1
		c-8,11-14,31-14,45c0,21-2,23-10,11s-10-9-10,12c0,15-4,29-9,32s-12,27-15,53c-14,104-10,98-72,96c-90-2-143,40-98,78
		c10,8,49,16,88,19s84,6,101,7C4841,2579,4858,2574,4862,2567z M5664,2558c-5-7-1-9,9-5c10,3,17,3,17-2c0-14-22-28-55-35
		c-29-6-29-6-10,10c11,8,19,20,18,25c-2,5,2,9,8,9c5,0,7,5,3,12s-3,8,5,4C5665,2572,5667,2564,5664,2558z M5625,2560
		c-3-5-12-10-18-10c-7,0-6,4,3,10C5629,2572,5633,2572,5625,2560z M5078,2522c-5-23-25-25-31-3c-6,24,0,31,19,24
		C5074,2540,5080,2531,5078,2522z M3324,2329c12-12-13-59-32-59c-23,0-56,35-49,52C3248,2335,3313,2341,3324,2329z M4540,2315
		c0-8-3-15-6-15s-12,7-20,15c-14,13-13,15,5,15C4531,2330,4540,2324,4540,2315z M4473,2313c-7-2-19-2-25,0c-7,3-2,5,12,5
		S4479,2316,4473,2313z M3774,2266c-21-15-30-14-19,3c3,6,14,11,23,11C3791,2280,3791,2278,3774,2266z M13032,1103
		c26-31,27-61,6-201c-17-116-18-142-7-175c7-21,21-43,31-48s18-18,18-27c0-18-35-62-48-62c-19,1-73,60-88,95c-34,81-28,265,12,388
		c13,38,20,47,38,47C13007,1120,13024,1112,13032,1103z M10136,1005c9-14,20-61,25-106c11-113,17-134,45-164c20-22,23-32,16-54
		c-17-52-79-36-112,29c-11,22-23,40-25,40c-3,0-23-17-45-39c-64-62-184-80-210-31c-17,32-11,77,13,103c40,45,156,56,169,16
		c2-7,14-9,34-5l31,7l-5,99c-3,71-1,104,8,115C10098,1037,10117,1033,10136,1005z M9390,953c11-14,20-37,20-50c0-60,72-153,142-183
		c60-25,102-65,94-87c-3-8-6-21-6-29c0-19-62-18-101,2c-33,17-210,31-253,20c-16-4-39-27-63-64c-21-31-41-61-44-65s-19-1-35,8
		c-16,8-25,15-21,15s3,9-3,21c-10,17-7,27,13,57c14,20,31,55,38,77s21,49,30,60c33,39,81,146,75,168c-8,31,3,65,22,70
		C9346,983,9370,978,9390,953z M13413,973c12-23-17-73-62-109c-28-21-49-43-47-49c1-5,27-14,57-18c53-9,89-29,89-51
		c-1-6-10-22-20-35c-16-19-34-25-91-31c-113-13-173,13-184,79c-11,68,20,109,140,180C13361,977,13403,990,13413,973z M16749,926
		c31-33,35-80,16-161c-10-38-18-119-19-178c-3-114-9-130-51-125c-56,8-82,189-50,359c9,52,21,102,26,111
		C16685,957,16723,954,16749,926z M1133,912c54-18,66-29,73-66c3-18,1-24-9-20c-7,2-22-4-32-16c-10-11-22-20-26-20s-35-16-67-35
		c-46-27-59-39-58-57c1-21,9-24,83-34c123-18,178-39,193-74c7-16,10-36,6-45c-7-19-54-19-76,0c-9,8-45,19-81,25c-35,6-79,13-98,16
		l-34,7l8-76c3-42,4-81,1-86c-8-12-55,10-60,29c-3,8-12,51-22,95c-11,52-23,85-36,93c-24,18-23,46,5,78c20,23,41,117,28,130
		c-2,2-27,4-55,4h-51l31,31C904,939,1027,948,1133,912z M16008,901c33-36,28-68-10-62c-5,0-7-4-5-10c1-6-7-13-18-15s-40-8-65-13
		c-25-6-66-10-92-11c-55,0-61-11-18-37c36-21,56-77,55-151c0-46-1-47-37-56c-27-7-45-6-62,3c-26,14-50,57-40,72c3,5-7,30-21,55
		c-18,30-30,71-36,117c-9,68-8,72,17,98c23,24,31,26,116,27c50,1,93,4,97,7c3,4,26,5,51,3C15972,926,15992,918,16008,901z M1490,912
		c0-5,34-14,76-20c78-12,109-32,98-61c-2-8,5-23,16-34c12-10,19-26,16-34s-6-18-6-21c0-4-45-8-100-9s-104-4-110-8c-24-15-4-22,84-33
		c129-16,141-22,116-62c-7-12-31-15-106-15c-78,0-98-3-101-15c-12-42-13-43-37-18c-20,20-26,38-31,103c-4,44-11,100-16,124
		c-11,48-2,62,57,94C1479,921,1490,924,1490,912z M17191,898c19-6,40-17,46-24c7-7,18-14,24-16c18-6-11-45-43-59c-15-6-34-9-43-6
		c-8,4-17,2-20-3c-4-6-19-10-36-10c-51,0-31-17,36-31c36-7,65-16,65-21c0-4,9-8,20-8c28,0,25-18-10-52l-30-28l25-10
		c14-5,25-12,25-16c0-9-49-54-59-54c-4,0-22-7-40-16s-47-14-67-12c-30,4-35,1-41-21c-12-52-21-61-48-49c-28,13-30,18-45,111
		c-14,89-4,284,16,315c13,20,22,22,103,22C17117,910,17172,905,17191,898z M3045,887c16-16,18-47,16-189c-1-84-4-108-15-108
		c-7,0-19,7-26,15c-7,9-21,13-31,10c-29-10-41,37-37,136c3,69,8,91,27,117C3003,902,3023,908,3045,887z M15008,884c12-2,36-23,52-46
		c27-36,30-48,24-84c-6-40-5-42,27-53c17-6,40-11,50-11c9,0,19-5,21-12c7-19,28,1,28,27c0,13,14,40,31,60c49,56,132,70,173,29
		c14-14,14-17,0-40c-9-13-12-25-8-25c5-1-9-5-30-8c-61-9-58-31,4-31c46,0,56,4,85,33l34,34l-1-50c0-45-4-55-36-87
		c-51-49-83-64-126-56c-46,9-81,27-110,59l-24,26l-57-31c-52-28-61-30-122-23c-50,5-72,13-89,30c-32,32-31,75,1,105
		c43,40,33,49-57,52c-80,3-83,4-96,32c-13,26-12,30,6,49C14820,894,14914,903,15008,884z M2050,870c7-14,7-20,0-20c-18,0-11-22,9-27
		c22-6,33-26,25-46c-2-7-30-18-62-25c-113-26-132-33-132-47c0-12,14-14,84-9c48,3,86,1,90-4c3-5-5-21-17-35c-18-22-35-28-92-34
		c-63-7-71-11-83-36c-12-24-15-26-35-15c-12,7-26,11-31,10c-18-6-24,23-21,112c4,105,23,166,56,183c14,7,62,13,111,13
		C2029,890,2041,888,2050,870z M4068,868c19-6,37-19,41-31c19-51,22-67,12-67c-14,0-94-80-88-86c3-3,20-6,38-6c19,0,42-5,51-10
		c16-8,16-10-4-33c-18-21-31-25-75-25c-55,0-143,34-143,55c0,14,21,35,83,82c64,49,60,68-15,69c-78,2-92,8-78,34c6,12,21,25,33,29
		C3948,888,4020,883,4068,868z M4485,840c-1-30-8-48-33-73c-32-33-42-60-19-52c38,13,103,13,118-1c25-23,13-60-25-74
		c-17-7-41-17-53-22c-17-9-33-4-84,24c-98,53-104,102-22,183C4444,901,4487,906,4485,840z M10341,828c57-74,103-83,128-27
		c8,19,20,29,34,29c27,0,45-26,53-80c4-23,15-47,26-54c20-14,17-37-10-68c-20-24-47-23-83,2c-18,14-41,20-66,19c-21-2-48,3-59,9
		c-44,24-114,122-114,161c0,8,41,60,47,61C10299,880,10318,856,10341,828z M11115,825c12-37,24-46,46-34c31,16,45,10,69-33
		c12-24,31-52,41-63c23-26,15-61-16-69c-26-7-69,6-80,23c-3,6-18,11-32,11c-75,0-121,59-109,141c7,53,13,61,44,57
		C11097,856,11107,847,11115,825z M11570,824c6-14,10-42,10-63c0-35,3-39,30-44c17-4,30-12,30-18c0-19-31-49-50-49c-9,0-20-4-26-10
		c-14-14-77,6-103,34c-18,19-21,32-17,65c5,47,17,66,61,93C11545,856,11559,855,11570,824z M2218,803c6-15,12-56,12-92v-66h80
		c63,0,83-4,97-18c17-17,17-19-6-36c-14-11-42-21-62-24c-21-3-53-12-71-21c-34-17-110-14-135,6c-7,6-13,31-13,57c1,69,27,203,42,212
		C2186,837,2205,830,2218,803z M3668,773c13-26,13-36,4-42c-18-11-430-3-453,9c-24,13-25,45-1,56c18,9,369,22,410,15
		C3643,809,3658,795,3668,773z M13977,771c50-48,52-49,69-30c22,25,36,24,61-3c39-43,37-61-10-112c-51-54-80-59-125-21
		c-17,14-36,25-44,25c-24,0-45,32-56,84c-14,67,1,102,44,105C13921,820,13949,798,13977,771z M10833,798c28-8,46-22,60-45
		c10-18,25-33,32-33c39,0,16-61-31-82c-20-9-31-9-52,4c-15,8-47,18-72,22c-56,9-80,30-80,70C10690,801,10743,825,10833,798z
		 M11930,780c11-6,26-25,35-43c21-45,59-57,179-53l99,3l-43-36c-50-41-132-80-172-81c-16,0-28-5-28-11c0-21-126-6-159,19
		c-18,13-45,22-67,22c-67,0-116,48-97,97c13,34,34,45,96,50c34,3,78,14,97,24C11911,793,11906,793,11930,780z"/>
	<path class="st0" d="M4548,10233c7-3,16-2,19,1c4,3-2,6-13,5C4543,10239,4540,10236,4548,10233z"/>
	<path class="st0" d="M1015,10735c-16-8-45-14-63-15c-38,0-61-10-98-45c-31-28-26-41,19-49c98-18,256,62,216,110
		C1075,10753,1055,10753,1015,10735z"/>
	<path class="st0" d="M3180,10461c0-6,5-13,10-16c6-3,10,1,10,9c0,9-4,16-10,16C3185,10470,3180,10466,3180,10461z"/>
	<path class="st0" d="M2617,10658c-52-69-71-128-42-128c19,0,85,98,85,127C2660,10692,2643,10693,2617,10658z"/>
	<path class="st0" d="M4134,10649c-17-5-37-16-44-24c-11-13-8-15,17-15c40,0,124,30,117,41C4218,10662,4176,10661,4134,10649z"/>
	<path class="st0" d="M4058,10474c-9-9-11-106-2-128c12-31,175-13,217,24c13,12-12,54-47,78C4192,10471,4073,10490,4058,10474z"/>
	<path class="st0" d="M10100,10520c-13-8-12-10,3-10c9,0,17,5,17,10C10120,10532,10119,10532,10100,10520z"/>
	<path class="st0" d="M7290,10501c0-5,7-12,16-15c14-5,15-4,4,9C7296,10512,7290,10514,7290,10501z"/>
	<path class="st0" d="M12015,10060c4-6,11-8,16-5c14,9,11,15-7,15C12016,10070,12012,10065,12015,10060z"/>
	<path class="st0" d="M13378,10174c-1-31,0-58,3-60c25-15,144,66,123,85c-13,12-73,31-100,31C13384,10230,13382,10224,13378,10174z"
		/>
	<path class="st0" d="M15668,8553c7-3,16-2,19,1c4,3-2,6-13,5C15663,8559,15660,8556,15668,8553z"/>
	<path class="st0" d="M8256,8889c-2-8-4-21-4-29s-3-29-7-46c-7-30-6-32,30-36c20-2,38-1,40,2c6,9-28,97-43,112
		C8263,8901,8260,8900,8256,8889z"/>
	<path class="st0" d="M12820,8830c0-5,5-10,10-10c6,0,10,5,10,10c0,6-4,10-10,10C12825,8840,12820,8836,12820,8830z"/>
	<path class="st0" d="M12264,8804c-15-22-15-27-3-35c20-12,24-11,50,10c20,16,21,21,10,35C12302,8837,12283,8834,12264,8804z"/>
	<path class="st0" d="M627,8643c-15-4-17-11-11-36c4-18,10-58,14-89c3-32,9-60,12-63c9-10,55,5,76,25c12,12,28,17,41,13
		c15-4,21-1,21,11c0,9-5,16-11,16c-8,0-7,5,2,16c39,47,1,100-76,107C668,8646,637,8646,627,8643z"/>
	<path class="st0" d="M1170,8430c0-5,5-10,11-10c5,0,7,5,4,10c-3,6-8,10-11,10C1172,8440,1170,8436,1170,8430z"/>
	<path class="st0" d="M13310,8556c0-2,7-6,15-10c8-3,15-1,15,4c0,6-7,10-15,10S13310,8558,13310,8556z"/>
	<path class="st0" d="M13375,8550c-19-8-19-9,3-9c12-1,22,4,22,9c0,6-1,10-2,9C13396,8559,13386,8555,13375,8550z"/>
	<path class="st0" d="M13272,8536c7-8,15-12,17-11c5,6-10,25-20,25C13264,8550,13265,8544,13272,8536z"/>
	<path class="st0" d="M17475,7189c-4-6-5-12-2-15c2-3,7,2,10,11C17490,7202,17484,7205,17475,7189z"/>
	<path class="st0" d="M17320,6965c-7-8-8-15-2-15c5,0,15,7,22,15s8,15,2,15C17337,6980,17327,6973,17320,6965z"/>
	<path class="st0" d="M17258,6883c7-3,16-2,19,1c4,3-2,6-13,5C17253,6889,17250,6886,17258,6883z"/>
	<path class="st0" d="M17235,6860c3-5,10-10,16-10c5,0,9,5,9,10c0,6-7,10-16,10C17236,6870,17232,6866,17235,6860z"/>
	<path class="st0" d="M17276,6853c-6-14-5-15,5-6c7,7,10,15,7,18S17279,6863,17276,6853z"/>
	<path class="st0" d="M17215,6830c-3-5-2-10,4-10c5,0,13,5,16,10c3,6,2,10-4,10C17226,6840,17218,6836,17215,6830z"/>
	<path class="st0" d="M17100,6789c0-5,5-7,10-4c6,3,10,8,10,11c0,2-4,4-10,4C17105,6800,17100,6795,17100,6789z"/>
	<path class="st0" d="M16690,6779c0-5,5-7,10-4c6,3,10,8,10,11c0,2-4,4-10,4C16695,6790,16690,6785,16690,6779z"/>
	<path class="st0" d="M17440,7539c0-5-5-7-12-3s-8,3-4-4c4-6,13-9,21-5c17,6,20,23,5,23C17445,7550,17440,7545,17440,7539z"/>
	<path class="st0" d="M17450,7510c0-5,5-10,10-10c6,0,10,5,10,10c0,6-4,10-10,10C17455,7520,17450,7516,17450,7510z"/>
	<path class="st0" d="M8887,7253c3-32,7-60,9-61c5-7,79,20,122,45c24,14,40,29,35,33c-10,10-127,40-153,40
		C8883,7310,8882,7304,8887,7253z"/>
	<path class="st0" d="M1625,7150c-3-6,1-7,9-4c18,7,21,14,7,14C1635,7160,1628,7156,1625,7150z"/>
	<path class="st0" d="M2520,7200c-9-6-10-10-3-10c6,0,15,5,18,10C2543,7212,2539,7212,2520,7200z"/>
	<path class="st0" d="M4270,7119c0-5,5-7,10-4c6,3,10,8,10,11c0,2-4,4-10,4C4275,7130,4270,7125,4270,7119z"/>
	<path class="st0" d="M2193,7057c2-6,13-11,25-12c26-2,20,11-8,18C2197,7066,2190,7064,2193,7057z"/>
	<path class="st0" d="M2990,7050c0-5,5-10,11-10c5,0,7,5,4,10c-3,6-8,10-11,10C2992,7060,2990,7056,2990,7050z"/>
	<path class="st0" d="M4895,7170c-3-5,1-10,9-10c9,0,16,5,16,10c0,6-4,10-9,10C4905,7180,4898,7176,4895,7170z"/>
	<path class="st0" d="M1120,7020c0-5,5-10,10-10c6,0,10,5,10,10c0,6-4,10-10,10C1125,7030,1120,7026,1120,7020z"/>
	<path class="st0" d="M926,5961c-2-3-6-18-9-32c-4-15-24-39-44-55c-63-48-107-93-99-101c4-5,13-1,19,7c7,8,19,16,27,18
		c32,7,209,147,198,157C1011,5961,929,5967,926,5961z"/>
	<path class="st0" d="M1334,5899c-22-11-64-88-64-117c0-28,21-42,60-42c37,0,46,7,130,97c31,34,39,63,17,63c-7,0-18-14-24-31
		c-13-33-30-35-47-4C1380,5910,1369,5916,1334,5899z"/>
	<path class="st0" d="M13917,5873c-11-20-17-83-8-83c5,0,13,5,16,10c3,6,20,10,36,10c34,0,99,25,99,38c0,5-23,14-51,20
		C13951,5882,13923,5883,13917,5873z"/>
	<path class="st0" d="M14030,5705c0-8,4-15,10-15c5,0,7,7,4,15c-4,8-8,15-10,15S14030,5713,14030,5705z"/>
	<path class="st0" d="M2260,5869c-16-17-31-25-35-19c-13,22-44,8-94-41c-28-29-51-58-51-65c0-35,176,0,240,47c39,29,55,68,37,86
		C2331,5903,2291,5900,2260,5869z"/>
	<path class="st0" d="M2661,5825c-59-44-74-64-48-66c52-6,78-4,117,7c60,18,130,64,130,86c0,23-9,23-36-3l-22-21l-11,21
		C2772,5883,2730,5876,2661,5825z"/>
	<path class="st0" d="M3533,5503c-23-4-31-27-13-38c6-4,7,1,3,12c-6,15-4,16,9,6c11-10,23-10,47-2c17,6,31,14,31,18
		C3610,5507,3565,5509,3533,5503z"/>
	<path class="st0" d="M3768,5503c6-2,18-2,25,0c6,3,1,5-13,5S3761,5506,3768,5503z"/>
	<path class="st0" d="M3430,5491c0-11,26-22,34-14c3,3,3,10,0,14C3457,5503,3430,5502,3430,5491z"/>
	<path class="st0" d="M15948,4466c-140-49-235-115-289-201c-23-36-24-61-5-106c24-57,41-68,199-120c71-23,87-24,87-4c0,8-4,15-10,15
		c-5,0-10,10-10,23c0,52-10,65-57,72c-48,7-83,34-83,64c0,28,22,41,79,48l51,6v58c0,47,4,62,22,79c45,41,97-5,98-87c0-51,0-52,33-55
		c28-3,32-7,35-34c2-23-6-41-33-74c-30-36-36-49-33-84c3-39,4-41,35-40c42,2,107,36,138,72c40,46,80,158,78,220c-1,44-7,60-28,83
		c-15,15-41,33-59,40c-17,7-37,17-45,23c-7,6-26,9-42,8c-16-2-29,1-29,7C16080,4497,16019,4491,15948,4466z"/>
	<path class="st0" d="M6220,4430c-88-24-110-34-143-65c-20-19-25-31-18-38c14-14,115,10,148,36c13,11,45,29,71,42c41,20,44,23,26,32
		C6291,4444,6266,4442,6220,4430z"/>
	<path class="st0" d="M14626,4434c-56-29-139-108-181-172c-75-113-6-205,165-219c76-6,136,6,211,43c51,25,126,104,135,141
		c4,13,9,23,13,23s7,10,8,23c1,12,5,37,8,55c3,17,2,32-3,32c-6,0-13,7-16,16c-3,8-2,12,4,9s10-2,10,3c0,12-24,22-51,22
		c-10,0-19,5-19,11c0,5-4,8-10,4c-5-3-37,1-72,9C14704,4462,14679,4462,14626,4434z M14822,4298c11-11,18-33,18-55v-36l-136,6
		c-141,7-166,14-185,49c-9,17-8,23,7,32c36,21,59,24,168,23C14786,4316,14807,4313,14822,4298z"/>
	<path class="st0" d="M14991,4294c0-11,3-14,6-6c3,7,2,16-1,19C14993,4311,14990,4305,14991,4294z"/>
	<path class="st0" d="M10090,4331c0-10,3-32,6-48c5-26,9-29,35-25c50,7,54,26,12,61C10099,4355,10090,4357,10090,4331z"/>
	<path class="st0" d="M815,3979c-16-10-26-19-22-19c11,0,67,29,67,35C860,4004,845,3999,815,3979z"/>
	<path class="st0" d="M937,2600c-52-6-67-20-67-60c0-51,12-55,81-24c84,37,113,58,96,72C1029,2602,991,2606,937,2600z"/>
	<path class="st0" d="M1228,2318c9-9,15-9,24,0s7,12-12,12S1219,2327,1228,2318z"/>
	<path class="st0" d="M1780,2661c0-5,5-13,10-16c6-3,10-2,10,4c0,5-4,13-10,16C1785,2668,1780,2667,1780,2661z"/>
	<path class="st0" d="M1770,2359c0-5,5-7,10-4c6,3,10,8,10,11c0,2-4,4-10,4C1775,2370,1770,2365,1770,2359z"/>
	<path class="st0" d="M11964,2615c9-23-22-30-44-10c-14,13-23,14-39,6c-11-6-30-11-43-11c-36-1-105-36-146-75c-36-34-36-36-18-50
		c24-19,53-19,138-1c112,24,245,110,224,145c-4,6-23,11-43,11C11966,2630,11959,2627,11964,2615z"/>
	<path class="st0" d="M2391,2514c0-11,3-14,6-6c3,7,2,16-1,19C2393,2531,2390,2525,2391,2514z"/>
	<path class="st0" d="M3530,2614c0-8,5-12,10-9c6,3,10,10,10,16c0,5-4,9-10,9C3535,2630,3530,2623,3530,2614z"/>
	<path class="st0" d="M3960,2359c0-5,5-7,10-4c6,3,10,8,10,11c0,2-4,4-10,4C3965,2370,3960,2365,3960,2359z"/>
	<path class="st0" d="M6127,2453c-7-12-17-64-19-106c-1-21-6-41-10-43c-27-17,26-27,62-12c8,4,26,9,40,12c109,22,131,41,89,75
		c-13,11-27,20-32,21c-4,0-24,11-45,24C6167,2452,6133,2464,6127,2453z"/>
	<path class="st0" d="M6310,2445c-7-9-8-15-2-15c5,0,12,7,16,15c3,8,4,15,2,15S6317,2453,6310,2445z"/>
	<path class="st0" d="M4350,2286c0-2,7-7,16-10c8-3,12-2,9,4C4369,2290,4350,2294,4350,2286z"/>
	<path class="st0" d="M5650,2220c0-11,7-20,15-20c13,0,14,4,5,20c-6,11-13,20-15,20C5652,2240,5650,2231,5650,2220z"/>
	<path class="st0" d="M4910,2520c0-5,5-10,11-10c5,0,7,5,4,10c-3,6-8,10-11,10C4912,2530,4910,2526,4910,2520z"/>
	<path class="st0" d="M4955,2500c28-12,37-12,30,0c-3,6-16,10-28,9C4936,2509,4936,2508,4955,2500z"/>
	<path class="st0" d="M4861,2284c0-11,3-14,6-6c3,7,2,16-1,19C4863,2301,4860,2295,4861,2284z"/>
	<path class="st0" d="M1017,853c-8-7-9-63-2-63c16,0,85,52,80,60C1088,861,1027,864,1017,853z"/>
</g>
</svg>
